<?xml version="1.0" encoding="UTF-8" standalone="no"?>
<!-- Generator: Adobe Illustrator 18.0.0, SVG Export Plug-In . SVG Version: 6.00 Build 0)  -->

<svg
   xmlns:dc="http://purl.org/dc/elements/1.1/"
   xmlns:cc="http://creativecommons.org/ns#"
   xmlns:rdf="http://www.w3.org/1999/02/22-rdf-syntax-ns#"
   xmlns:svg="http://www.w3.org/2000/svg"
   xmlns="http://www.w3.org/2000/svg"
   xmlns:sodipodi="http://sodipodi.sourceforge.net/DTD/sodipodi-0.dtd"
   xmlns:inkscape="http://www.inkscape.org/namespaces/inkscape"
   version="1.1"
   id="Capa_1"
   x="0px"
   y="0px"
   viewBox="0 0 63.999999 63.999999"
   xml:space="preserve"
   inkscape:version="0.91 r13725"
   sodipodi:docname="beans.svg"
   width="64"
   height="64"><metadata
     id="metadata61"><rdf:RDF><cc:Work
         rdf:about=""><dc:format>image/svg+xml</dc:format><dc:type
           rdf:resource="http://purl.org/dc/dcmitype/StillImage" /><dc:title></dc:title></cc:Work></rdf:RDF></metadata><defs
     id="defs59" /><sodipodi:namedview
     pagecolor="#ffffff"
     bordercolor="#666666"
     borderopacity="1"
     objecttolerance="10"
     gridtolerance="10"
     guidetolerance="10"
     inkscape:pageopacity="0"
     inkscape:pageshadow="2"
     inkscape:window-width="1680"
     inkscape:window-height="999"
     id="namedview57"
     showgrid="false"
     inkscape:zoom="5.3613211"
     inkscape:cx="22.382543"
     inkscape:cy="22.009501"
     inkscape:window-x="0"
     inkscape:window-y="0"
     inkscape:window-maximized="1"
     inkscape:current-layer="Capa_1" /><g
     id="g3"
     transform="matrix(1.4491704,0,0,1.4491704,0.10351615,0.10568061)"><path
       style="fill:#659c35"
       d="m 25.89,8.164 c 3.761,0 6.856,2.832 7.28,6.48 0.1,-0.01 0.196,-0.03 0.295,-0.044 2.546,-3.411 4.093,-5.803 4.093,-5.803 0.771,-1.198 1.403,-2.324 1.925,-3.355 -0.841,-3.124 -3.685,-5.426 -7.074,-5.426 -4.05,0 -7.334,3.283 -7.334,7.334 0,0.29 0.021,0.574 0.054,0.854 0.25,-0.026 0.504,-0.04 0.761,-0.04 z"
       id="path5"
       inkscape:connector-curvature="0" /><path
       style="fill:#88c057"
       d="m 25.869,22.831 c 0.007,0 0.014,0.001 0.021,0.001 0.328,0 0.649,-0.029 0.966,-0.071 2.444,-2.77 4.607,-5.498 6.34,-7.805 -0.278,-3.796 -3.439,-6.792 -7.307,-6.792 -4.05,0 -7.334,3.283 -7.334,7.334 0,0.138 0.013,0.272 0.021,0.408 3.904,0.012 7.08,3.073 7.293,6.925 z"
       id="path7"
       inkscape:connector-curvature="0" /><path
       style="fill:#88c057"
       d="m 6.779,37.754 c 3.286,-0.77 6.694,-2.728 9.996,-5.287 0.099,-0.48 0.151,-0.977 0.151,-1.486 0,-4.05 -3.283,-7.334 -7.334,-7.334 -4.051,0 -7.334,3.283 -7.334,7.334 0,3.054 1.867,5.669 4.521,6.773 z"
       id="path9"
       inkscape:connector-curvature="0" /><path
       style="fill:#659c35"
       d="m 16.896,30.378 c 0.534,0.124 1.088,0.196 1.66,0.196 0.186,0 0.369,-0.014 0.551,-0.028 2.369,-2.057 4.648,-4.353 6.751,-6.669 0.018,-0.21 0.032,-0.422 0.032,-0.637 0,-4.05 -3.283,-7.334 -7.334,-7.334 -4.051,0 -7.334,3.283 -7.334,7.334 0,0.204 0.014,0.404 0.03,0.603 3.06,0.709 5.382,3.327 5.644,6.535 z"
       id="path11"
       inkscape:connector-curvature="0" /><g
       id="g13"><path
         style="fill:#436b1c"
         d="m 28.975,8.851 c 0.317,0.148 0.622,0.317 0.913,0.507 -0.291,-0.191 -0.596,-0.36 -0.913,-0.507 z"
         id="path15"
         inkscape:connector-curvature="0" /><path
         style="fill:#436b1c"
         d="M 28.899,8.817 C 28.575,8.671 28.241,8.542 27.893,8.443 c -0.001,0.001 -0.002,0.001 -0.002,0.002 0.348,0.098 0.683,0.225 1.008,0.372 z"
         id="path17"
         inkscape:connector-curvature="0" /><path
         style="fill:#436b1c"
         d="M 31.514,10.806 C 31.063,10.266 30.537,9.792 29.951,9.4 c 0.586,0.392 1.113,0.866 1.563,1.406 z"
         id="path19"
         inkscape:connector-curvature="0" /><path
         style="fill:#436b1c"
         d="m 33.008,13.771 c -0.17,-0.703 -0.441,-1.365 -0.797,-1.973 0.355,0.607 0.627,1.27 0.797,1.973 z"
         id="path21"
         inkscape:connector-curvature="0" /><path
         style="fill:#436b1c"
         d="m 32.157,11.707 c -0.178,-0.294 -0.375,-0.575 -0.592,-0.841 0.217,0.266 0.414,0.547 0.592,0.841 z"
         id="path23"
         inkscape:connector-curvature="0" /><path
         style="fill:#436b1c"
         d="m 42.271,1.084 c 0.027,-0.115 0.039,-0.176 0.039,-0.176 0.426,-1.185 -0.988,-0.87 -0.988,-0.87 -1.317,0.534 -2.641,1.184 -3.961,1.909 1.008,0.927 1.756,2.133 2.123,3.495 -0.522,1.03 -1.154,2.156 -1.925,3.355 0,0 -1.547,2.392 -4.093,5.803 -0.098,0.014 -0.195,0.034 -0.295,0.044 -0.032,-0.273 -0.083,-0.54 -0.144,-0.804 0.084,0.363 0.143,0.735 0.171,1.116 -1.733,2.307 -3.896,5.035 -6.34,7.805 -0.317,0.042 -0.638,0.071 -0.966,0.071 -0.006,0 -0.013,-0.001 -0.019,-0.001 0.008,0.136 0.019,0.271 0.019,0.408 0,0.215 -0.014,0.427 -0.032,0.637 -2.102,2.317 -4.381,4.612 -6.751,6.669 -0.183,0.014 -0.365,0.028 -0.551,0.028 -0.57,0 -1.122,-0.072 -1.655,-0.195 0.016,0.199 0.025,0.399 0.025,0.602 0,0.509 -0.052,1.006 -0.151,1.486 -3.302,2.559 -6.71,4.517 -9.996,5.287 C 5.413,37.184 4.261,36.209 3.459,34.983 1.683,37.41 1.035,38.43 0.817,38.802 L 0.63,38.973 c 0.056,0.151 0.27,0.423 0.591,0.773 4.979,5.43 12.33,5.707 18.916,0.692 C 31.258,31.971 40.67,18.088 40.67,18.088 45.438,10.502 42.546,2.421 42.271,1.084 Z"
         id="path25"
         inkscape:connector-curvature="0" /></g></g><g
     id="g27"
     transform="translate(0,19.980999)" /><g
     id="g29"
     transform="translate(0,19.980999)" /><g
     id="g31"
     transform="translate(0,19.980999)" /><g
     id="g33"
     transform="translate(0,19.980999)" /><g
     id="g35"
     transform="translate(0,19.980999)" /><g
     id="g37"
     transform="translate(0,19.980999)" /><g
     id="g39"
     transform="translate(0,19.980999)" /><g
     id="g41"
     transform="translate(0,19.980999)" /><g
     id="g43"
     transform="translate(0,19.980999)" /><g
     id="g45"
     transform="translate(0,19.980999)" /><g
     id="g47"
     transform="translate(0,19.980999)" /><g
     id="g49"
     transform="translate(0,19.980999)" /><g
     id="g51"
     transform="translate(0,19.980999)" /><g
     id="g53"
     transform="translate(0,19.980999)" /><g
     id="g55"
     transform="translate(0,19.980999)" /></svg>