<?xml version="1.0" encoding="UTF-8" standalone="no"?>
<!-- Generator: Adobe Illustrator 18.0.0, SVG Export Plug-In . SVG Version: 6.00 Build 0)  -->

<svg
   xmlns:dc="http://purl.org/dc/elements/1.1/"
   xmlns:cc="http://creativecommons.org/ns#"
   xmlns:rdf="http://www.w3.org/1999/02/22-rdf-syntax-ns#"
   xmlns:svg="http://www.w3.org/2000/svg"
   xmlns="http://www.w3.org/2000/svg"
   xmlns:sodipodi="http://sodipodi.sourceforge.net/DTD/sodipodi-0.dtd"
   xmlns:inkscape="http://www.inkscape.org/namespaces/inkscape"
   version="1.1"
   id="Capa_1"
   x="0px"
   y="0px"
   viewBox="0 0 64.000002 64.000002"
   xml:space="preserve"
   inkscape:version="0.91 r13725"
   sodipodi:docname="coin.svg"
   width="64"
   height="64"><metadata
     id="metadata91"><rdf:RDF><cc:Work
         rdf:about=""><dc:format>image/svg+xml</dc:format><dc:type
           rdf:resource="http://purl.org/dc/dcmitype/StillImage" /><dc:title></dc:title></cc:Work></rdf:RDF></metadata><defs
     id="defs89" /><sodipodi:namedview
     pagecolor="#ffffff"
     bordercolor="#666666"
     borderopacity="1"
     objecttolerance="10"
     gridtolerance="10"
     guidetolerance="10"
     inkscape:pageopacity="0"
     inkscape:pageshadow="2"
     inkscape:window-width="1680"
     inkscape:window-height="999"
     id="namedview87"
     showgrid="false"
     inkscape:zoom="6.6440439"
     inkscape:cx="13.900329"
     inkscape:cy="19.268355"
     inkscape:window-x="0"
     inkscape:window-y="0"
     inkscape:window-maximized="1"
     inkscape:current-layer="Capa_1" /><g
     id="g57"
     transform="translate(0,-337.86899)" /><g
     id="g59"
     transform="translate(0,-337.86899)" /><g
     id="g61"
     transform="translate(0,-337.86899)" /><g
     id="g63"
     transform="translate(0,-337.86899)" /><g
     id="g65"
     transform="translate(0,-337.86899)" /><g
     id="g67"
     transform="translate(0,-337.86899)" /><g
     id="g69"
     transform="translate(0,-337.86899)" /><g
     id="g71"
     transform="translate(0,-337.86899)" /><g
     id="g73"
     transform="translate(0,-337.86899)" /><g
     id="g75"
     transform="translate(0,-337.86899)" /><g
     id="g77"
     transform="translate(0,-337.86899)" /><g
     id="g79"
     transform="translate(0,-337.86899)" /><g
     id="g81"
     transform="translate(0,-337.86899)" /><g
     id="g83"
     transform="translate(0,-337.86899)" /><g
     id="g85"
     transform="translate(0,-337.86899)" /><g
     id="g4312"
     transform="matrix(0.99172508,0,0,0.9917256,0.2647974,0.26478081)"><path
       style="fill:#ffd42a"
       sodipodi:nodetypes="sssss"
       d="M 32,-6.1986e-7 C 14.35513,-6.1986e-7 1.262e-7,14.355165 1.262e-7,32.00008 1.262e-7,49.644835 14.35513,64.000001 32,64.000001 c 17.64487,0 32,-14.355166 32,-32.000081 C 63.999841,14.355165 49.64487,-6.1986e-7 32,-6.1986e-7 Z"
       id="path7"
       inkscape:connector-curvature="0" /><path
       style="fill:#d4aa00"
       d="m 32,5.7534366 c -14.472342,0 -26.2465771,11.7741054 -26.2465771,26.2464834 0,14.472378 11.7742351,26.246643 26.2465771,26.246643 14.472342,0 26.246577,-11.774105 26.246577,-26.246643 C 58.246418,17.527702 46.472342,5.7534366 32,5.7534366 Z M 32,55.857725 C 18.84486,55.857725 8.1422551,45.155252 8.1422551,31.99992 8.1422551,18.844748 18.844701,8.1422748 32,8.1422748 c 13.155299,0 23.857745,10.7024732 23.857745,23.8576452 C 55.857586,45.155252 45.15514,55.857725 32,55.857725 Z"
       id="path5"
       inkscape:connector-curvature="0" /><path
       style="fill:#d4aa00"
       d="m 12.316341,24.328405 c -0.627307,-0.203847 -1.301117,0.138553 -1.504805,0.766021 l -0.0018,0 c -0.203687,0.627468 0.138553,1.301121 0.766178,1.506561 0.122627,0.03981 0.248439,0.05892 0.369314,0.05892 0.504999,0 0.973051,-0.321696 1.137243,-0.824945 0.203847,-0.627468 -0.138711,-1.301121 -0.766178,-1.506561 z"
       id="path9"
       inkscape:connector-curvature="0" /><path
       style="fill:#d4aa00"
       d="m 11.566248,37.358721 c -0.6289,0.202255 -0.972892,0.875908 -0.769204,1.503376 0.1626,0.506434 0.632403,0.828131 1.135651,0.828131 0.122626,0 0.246846,-0.01911 0.36788,-0.05892 0.627466,-0.202255 0.973051,-0.875907 0.769204,-1.503376 -0.203847,-0.627468 -0.875905,-0.973053 -1.503531,-0.769206 z"
       id="path11"
       inkscape:connector-curvature="0" /><path
       style="fill:#d4aa00"
       d="m 14.222789,43.40726 c -0.533666,0.388584 -0.651355,1.135494 -0.264365,1.669001 0.234106,0.321697 0.597208,0.492101 0.966681,0.492101 0.243502,0 0.488755,-0.07326 0.700565,-0.227736 0.535098,-0.386992 0.653107,-1.133902 0.265957,-1.669001 -0.388424,-0.533348 -1.135492,-0.651198 -1.668838,-0.264365 z"
       id="path13"
       inkscape:connector-curvature="0" /><path
       style="fill:#d4aa00"
       d="m 12.107717,31.979058 c 0.0016,-0.659319 -0.533506,-1.194419 -1.192824,-1.194419 -0.659318,-0.0016 -1.1944161,0.533507 -1.1960087,1.192826 0,0.65932 0.5335057,1.194419 1.1944157,1.194419 0.659318,0.0016 1.194417,-0.533348 1.194417,-1.192826 z"
       id="path15"
       inkscape:connector-curvature="0" /><path
       style="fill:#d4aa00"
       d="m 15.652743,18.627204 c -0.533505,-0.388584 -1.280414,-0.272327 -1.668838,0.26118 -0.388583,0.533507 -0.270734,1.280417 0.262613,1.669001 0.211809,0.154479 0.458655,0.229329 0.702316,0.229329 0.36804,0 0.730983,-0.170404 0.965248,-0.490508 0.388424,-0.533507 0.272327,-1.280418 -0.261339,-1.669002 z"
       id="path17"
       inkscape:connector-curvature="0" /><path
       style="fill:#d4aa00"
       d="m 52.060298,26.679022 c 0.121034,0 0.245253,-0.01911 0.36788,-0.05892 0.627467,-0.203847 0.971618,-0.877499 0.767612,-1.504968 -0.203847,-0.627468 -0.877498,-0.97146 -1.504965,-0.767613 -0.627307,0.203848 -0.971458,0.8775 -0.767611,1.504968 0.163874,0.505001 0.632244,0.826538 1.137084,0.826538 z"
       id="path19"
       inkscape:connector-curvature="0" /><path
       style="fill:#d4aa00"
       d="m 20.287237,48.079987 c -0.533665,-0.388585 -1.280414,-0.272328 -1.668997,0.259587 -0.388424,0.533507 -0.272327,1.280417 0.261179,1.669001 0.21181,0.156071 0.458815,0.230921 0.702316,0.230921 0.369473,0 0.732735,-0.170403 0.966681,-0.490508 0.388584,-0.533666 0.272168,-1.280417 -0.261179,-1.669001 z"
       id="path21"
       inkscape:connector-curvature="0" /><path
       style="fill:#d4aa00"
       d="m 19.618364,16.125294 c 0.243661,0 0.488755,-0.07326 0.700565,-0.227736 0.533665,-0.388584 0.651514,-1.135494 0.264364,-1.669001 -0.388424,-0.533507 -1.135491,-0.651357 -1.668838,-0.264365 -0.533665,0.388584 -0.651355,1.135494 -0.264364,1.669002 0.233946,0.321696 0.598641,0.4921 0.968273,0.4921 z"
       id="path23"
       inkscape:connector-curvature="0" /><path
       style="fill:#d4aa00"
       d="m 43.696041,15.908706 c 0.21181,0.154478 0.458656,0.229329 0.702317,0.229329 0.368039,0 0.732734,-0.170404 0.96668,-0.492101 0.386991,-0.533507 0.270735,-1.280417 -0.262771,-1.669002 -0.533506,-0.386991 -1.280414,-0.270735 -1.668838,0.262773 -0.388743,0.533348 -0.270894,1.280417 0.262612,1.669001 z"
       id="path25"
       inkscape:connector-curvature="0" /><path
       style="fill:#d4aa00"
       d="m 32.009874,12.108702 c 0.659477,0 1.194416,-0.5351 1.194416,-1.194419 0.0016,-0.65932 -0.533506,-1.1944195 -1.192824,-1.1944195 -0.659317,-0.00159 -1.194416,0.5335075 -1.196008,1.1928265 0,0.661071 0.535257,1.196012 1.194416,1.196012 z"
       id="path27"
       inkscape:connector-curvature="0" /><path
       style="fill:#d4aa00"
       d="m 25.494732,13.131284 c 0.121194,0 0.245254,-0.01911 0.36804,-0.05893 0.627307,-0.202255 0.971458,-0.875907 0.767611,-1.503375 -0.203847,-0.627469 -0.875905,-0.971461 -1.503372,-0.767614 -0.627466,0.202255 -0.973051,0.875908 -0.769204,1.503376 0.164033,0.504841 0.632085,0.826538 1.136925,0.826538 z"
       id="path29"
       inkscape:connector-curvature="0" /><path
       style="fill:#d4aa00"
       d="m 38.155543,13.078729 c 0.122786,0.03981 0.247005,0.05893 0.369473,0.05893 0.503247,0 0.971458,-0.320104 1.135491,-0.824946 0.203847,-0.627468 -0.138552,-1.30112 -0.766019,-1.504968 -0.627466,-0.203847 -1.301117,0.138553 -1.504964,0.766021 -0.203847,0.627468 0.138711,1.301121 0.766019,1.504968 z"
       id="path31"
       inkscape:connector-curvature="0" /><path
       style="fill:#d4aa00"
       d="m 52.418623,37.420991 c -0.627467,-0.205441 -1.30271,0.13696 -1.506557,0.764428 -0.20544,0.627468 0.1368,1.30112 0.764426,1.50656 0.122627,0.03981 0.246846,0.05892 0.369473,0.05892 0.503247,0 0.971458,-0.320104 1.135492,-0.823353 0.205439,-0.627468 -0.137119,-1.30128 -0.762834,-1.50656 z"
       id="path33"
       inkscape:connector-curvature="0" /><path
       style="fill:#d4aa00"
       d="m 48.359041,18.641378 c -0.533505,0.388584 -0.651354,1.135494 -0.262771,1.669002 0.234265,0.321696 0.597208,0.4921 0.966681,0.4921 0.243661,0 0.490507,-0.07485 0.702316,-0.229328 0.533506,-0.386992 0.651355,-1.133902 0.262772,-1.667409 -0.388584,-0.533348 -1.135492,-0.651198 -1.668998,-0.264365 z"
       id="path35"
       inkscape:connector-curvature="0" /><path
       style="fill:#d4aa00"
       d="m 53.085744,30.805501 c -0.659318,0 -1.194416,0.5351 -1.194416,1.194419 0,0.008 0,0.01433 0,0.0223 0,0.0064 0,0.01274 0,0.01911 -0.0016,0.659319 0.532073,1.196012 1.191231,1.197604 0.0016,0 0.0016,0 0.0032,0 0.657884,0 1.192824,-0.533507 1.194416,-1.192826 0,-0.0048 0,-0.0096 0,-0.01433 0,-0.0096 0,-0.0207 0,-0.03185 0,-0.659478 -0.534939,-1.194419 -1.194416,-1.194419 z"
       id="path37"
       inkscape:connector-curvature="0" /><path
       style="fill:#d4aa00"
       d="m 25.824391,50.914741 c -0.627307,-0.203847 -1.301117,0.138553 -1.506557,0.764428 -0.203847,0.627469 0.138552,1.302714 0.766019,1.506561 0.122786,0.03981 0.248598,0.05893 0.371065,0.05893 0.503248,0 0.970025,-0.320105 1.133899,-0.823353 0.20544,-0.627468 -0.1368,-1.302713 -0.764426,-1.506561 z"
       id="path39"
       inkscape:connector-curvature="0" /><path
       style="fill:#d4aa00"
       d="m 49.741379,43.461566 c -0.531913,-0.390177 -1.278662,-0.27392 -1.668838,0.259587 0.0016,0 0.0016,0 0.0016,0 -0.390176,0.531915 -0.273919,1.280417 0.257994,1.669002 0.213403,0.154478 0.460249,0.229328 0.703909,0.229328 0.369473,0 0.732576,-0.168811 0.966681,-0.488915 0.388424,-0.533667 0.272327,-1.280418 -0.261338,-1.669002 z"
       id="path41"
       inkscape:connector-curvature="0" /><path
       style="fill:#d4aa00"
       d="m 43.664349,48.115023 c -0.533665,0.386992 -0.653107,1.133902 -0.266116,1.667409 0.234265,0.323289 0.597208,0.493693 0.968274,0.493693 0.242227,0 0.487481,-0.07326 0.69929,-0.227736 0.53494,-0.386992 0.652948,-1.133902 0.265957,-1.667409 -0.386991,-0.5351 -1.134058,-0.652949 -1.667405,-0.265957 z"
       id="path43"
       inkscape:connector-curvature="0" /><path
       style="fill:#d4aa00"
       d="m 38.117481,50.933693 c -0.627467,0.202255 -0.971618,0.875907 -0.769204,1.503375 0.16244,0.506434 0.632244,0.828131 1.137084,0.828131 0.121034,0 0.243661,-0.01911 0.366288,-0.05893 0.627466,-0.202255 0.97305,-0.875907 0.769203,-1.503375 -0.202254,-0.627309 -0.876064,-0.971461 -1.503371,-0.769206 z"
       id="path45"
       inkscape:connector-curvature="0" /><path
       style="fill:#d4aa00"
       d="m 31.968467,51.890821 c -0.659317,0 -1.194416,0.533507 -1.196008,1.192826 -0.0016,0.659319 0.533506,1.196012 1.192823,1.196012 l 0.0016,0 c 0.659318,0 1.194416,-0.533507 1.194416,-1.191234 0.0016,-0.660753 -0.533506,-1.195853 -1.192824,-1.197604 z"
       id="path47"
       inkscape:connector-curvature="0" /><path
       style="fill:#d4aa00"
       d="m 32.054943,16.961069 c -0.03392,0 -0.06816,0 -0.102083,0 -3.821653,0 -7.415253,1.484424 -10.123074,4.183015 -2.720243,2.710854 -4.2182,6.318636 -4.2182,10.158773 l 0,7.760539 c 0,0.659638 0.534621,1.19442 1.194416,1.19442 2.462727,0 4.46632,2.003598 4.46632,4.466171 l 0,0.821761 c 0,0.659638 0.534621,1.194419 1.194416,1.194419 l 15.066365,0 c 0.659795,0 1.194416,-0.534781 1.194416,-1.194419 l 0,-0.821761 c 0,-2.462733 2.003434,-4.466171 4.46616,-4.466171 0.659796,0 1.194417,-0.534782 1.194417,-1.19442 l 0,-7.760539 c 0,-3.840296 -1.498117,-7.448079 -4.2182,-10.158773 -2.70814,-2.69875 -6.301103,-4.183015 -10.114953,-4.183015 z m 11.94432,21.012221 c -3.093219,0.545929 -5.47791,3.173014 -5.650543,6.378198 l -2.420206,0 0,-2.394094 c 0,-0.659638 -0.53462,-1.194419 -1.194416,-1.194419 -0.659795,0 -1.194416,0.534781 -1.194416,1.194419 l 0,2.394094 -3.079523,0 0,-2.394094 c 0,-0.659638 -0.534621,-1.194419 -1.194416,-1.194419 -0.659796,0 -1.194416,0.534781 -1.194416,1.194419 l 0,2.394094 -2.420047,0 C 25.478647,41.146145 23.094115,38.518901 20.000577,37.97329 l 0,-6.670433 c 0,-3.200565 1.248563,-6.207475 3.515565,-8.466679 2.257128,-2.24933 5.251768,-3.486271 8.445318,-3.486271 0.02851,0 0.05701,0 0.0852,0 3.185269,0 6.180227,1.2371 8.437196,3.486271 2.267002,2.259363 3.515565,5.266114 3.515565,8.466679 l 0,6.670433 z"
       id="path49"
       inkscape:connector-curvature="0" /><path
       style="fill:#d4aa00"
       d="m 29.601294,34.793587 -1.209545,-1.209548 1.209545,-1.209549 c 0.466459,-0.46646 0.466459,-1.222766 0,-1.689068 -0.466619,-0.46646 -1.222764,-0.46646 -1.689223,0 l -1.209545,1.209549 -1.209546,-1.209549 c -0.466459,-0.466301 -1.222604,-0.46646 -1.689223,0 -0.466459,0.466461 -0.466459,1.222608 0,1.689068 l 1.209546,1.209549 -1.209546,1.209548 c -0.466459,0.46646 -0.466459,1.222767 0,1.689068 0.23331,0.23331 0.53908,0.349885 0.844692,0.349885 0.305611,0 0.611381,-0.116575 0.844691,-0.349885 l 1.209545,-1.209549 1.209545,1.209549 c 0.23331,0.23331 0.538921,0.349885 0.844691,0.349885 0.305612,0 0.611382,-0.116575 0.844691,-0.349885 0.466141,-0.466301 0.466141,-1.222608 -3.18e-4,-1.689068 z"
       id="path51"
       inkscape:connector-curvature="0" /><path
       style="fill:#d4aa00"
       d="m 40.196243,30.685263 c -0.466619,-0.46646 -1.222764,-0.46646 -1.689223,0 l -1.209546,1.209548 -1.209545,-1.209548 c -0.466459,-0.466301 -1.222604,-0.46646 -1.689223,0 -0.466459,0.466461 -0.466459,1.222607 0,1.689068 l 1.209545,1.209548 -1.209545,1.209549 c -0.466459,0.46646 -0.466459,1.222766 0,1.689068 0.233309,0.233309 0.53908,0.349885 0.844691,0.349885 0.305611,0 0.611382,-0.116576 0.844691,-0.349885 l 1.209546,-1.209549 1.209545,1.209549 c 0.233309,0.233309 0.53892,0.349885 0.844691,0.349885 0.305611,0 0.611382,-0.116576 0.844691,-0.349885 0.466459,-0.466461 0.466459,-1.222608 0,-1.689068 l -1.209545,-1.209549 1.209545,-1.209548 c 0.465982,-0.466461 0.465982,-1.222767 -3.18e-4,-1.689068 z"
       id="path53"
       inkscape:connector-curvature="0" /><path
       style="fill:#d4aa00"
       d="m 33.194416,37.515111 0,-0.08361 c 0,-0.659637 -0.534621,-1.194419 -1.194416,-1.194419 -0.659795,0 -1.194416,0.534782 -1.194416,1.194419 l 0,0.08361 c -0.622371,0.04109 -1.114788,0.557555 -1.114788,1.190437 0,0.659638 0.53462,1.19442 1.194416,1.19442 l 2.229576,0 c 0.659796,0 1.194416,-0.534782 1.194416,-1.19442 0,-0.632882 -0.492417,-1.149349 -1.114788,-1.190437 z"
       id="path55"
       inkscape:connector-curvature="0" /><path
       style="fill:#d4aa00"
       inkscape:connector-curvature="0"
       id="path4245"
       d="m 32,-0.26699003 c -17.792002,0 -32.26700691,14.47484503 -32.26700691,32.26689203 0,17.792046 14.47500491,32.267088 32.26700691,32.267088 17.792002,0 32.267007,-14.474845 32.267007,-32.267088 C 64.266811,14.208052 49.792002,-0.26699003 32,-0.26699003 Z M 32,61.330201 C 15.827339,61.330201 2.6697747,48.172799 2.6697747,31.999902 2.6697747,15.827201 15.827144,2.669799 32,2.669799 c 16.172856,0 29.330225,13.157402 29.330225,29.330103 C 61.33003,48.172799 48.172661,61.330201 32,61.330201 Z" /></g></svg>