<?xml version="1.0" encoding="UTF-8" standalone="no"?>
<!-- Generator: Adobe Illustrator 18.0.0, SVG Export Plug-In . SVG Version: 6.00 Build 0)  -->

<svg
   xmlns:dc="http://purl.org/dc/elements/1.1/"
   xmlns:cc="http://creativecommons.org/ns#"
   xmlns:rdf="http://www.w3.org/1999/02/22-rdf-syntax-ns#"
   xmlns:svg="http://www.w3.org/2000/svg"
   xmlns="http://www.w3.org/2000/svg"
   xmlns:sodipodi="http://sodipodi.sourceforge.net/DTD/sodipodi-0.dtd"
   xmlns:inkscape="http://www.inkscape.org/namespaces/inkscape"
   version="1.1"
   id="Capa_1"
   x="0px"
   y="0px"
   viewBox="0 0 64 64"
   xml:space="preserve"
   inkscape:version="0.91 r13725"
   sodipodi:docname="dice.svg"
   width="64"
   height="64"><metadata
     id="metadata57"><rdf:RDF><cc:Work
         rdf:about=""><dc:format>image/svg+xml</dc:format><dc:type
           rdf:resource="http://purl.org/dc/dcmitype/StillImage" /><dc:title></dc:title></cc:Work></rdf:RDF></metadata><defs
     id="defs55" /><sodipodi:namedview
     pagecolor="#ffffff"
     bordercolor="#666666"
     borderopacity="1"
     objecttolerance="10"
     gridtolerance="10"
     guidetolerance="10"
     inkscape:pageopacity="0"
     inkscape:pageshadow="2"
     inkscape:window-width="1680"
     inkscape:window-height="999"
     id="namedview53"
     showgrid="false"
     inkscape:zoom="3.0195494"
     inkscape:cx="-40.972224"
     inkscape:cy="15.646494"
     inkscape:window-x="0"
     inkscape:window-y="0"
     inkscape:window-maximized="1"
     inkscape:current-layer="Capa_1" /><g
     id="g4200"
     transform="matrix(2.2559198,0,0,2.2559198,-3.7527031e-7,-62.16288)"><rect
       ry="4.4371986"
       y="28.703047"
       x="1.3065767"
       height="26.218222"
       width="26.130747"
       id="rect4196"
       style="fill:#ff0000;fill-opacity:1;stroke:none;stroke-width:0.69138974" /><path
       d="m 23.099463,27.555533 -17.829293,0 C 2.3641646,27.555533 1.9537096e-7,29.919697 1.9537096e-7,32.825532 l 0,17.829463 c 0,2.906006 2.36416440462904,5.27017 5.27016980462904,5.27017 l 17.829463,0 c 2.906006,0 5.27017,-2.364164 5.27017,-5.27017 l 0,-17.829463 c -1.7e-4,-2.905835 -2.364335,-5.269999 -5.27034,-5.269999 z m 2.714316,23.099462 c 0,1.496708 -1.217608,2.714317 -2.714316,2.714317 l -17.829293,0 c -1.4965374,0 -2.7143164,-1.217609 -2.7143164,-2.714317 l 0,-17.829463 c 0,-1.496708 1.2176086,-2.714316 2.7143164,-2.714316 l 17.829463,0 c 1.496538,0 2.714317,1.217608 2.714317,2.714316 l 0,17.829463 z"
       id="path5"
       inkscape:connector-curvature="0" /><path
       d="m 7.5942927,36.661016 c 0.8044123,0 1.5120429,-0.585802 1.6715282,-1.371641 0.13972,-0.688377 -0.177717,-1.409128 -0.7723789,-1.779897 -0.6128937,-0.382185 -1.4217361,-0.326467 -1.9794233,0.13069 -0.5421817,0.444548 -0.757555,1.200569 -0.5314471,1.863898 0.2322418,0.681732 0.889437,1.15695 1.6117211,1.15695 z"
       id="path11"
       inkscape:connector-curvature="0" /><path
       d="m 7.5942927,43.444081 c 0.8047531,0 1.5117022,-0.58478 1.6715282,-1.371642 0.13972,-0.688206 -0.1773762,-1.408616 -0.7723789,-1.778192 -0.6137456,-0.381333 -1.4196914,-0.326468 -1.9794233,0.129156 -0.5432041,0.442333 -0.7568734,1.202273 -0.5314471,1.863728 0.2325826,0.683094 0.8889258,1.15695 1.6117211,1.15695 z"
       id="path13"
       inkscape:connector-curvature="0" /><path
       d="m 8.493442,47.077482 c -0.6137456,-0.381163 -1.4196914,-0.326468 -1.9794233,0.129326 -0.5442264,0.443185 -0.7558511,1.201933 -0.5314471,1.86441 0.2313899,0.683435 0.8899481,1.156268 1.6117211,1.156268 0.8040715,0 1.5113614,-0.583246 1.6715282,-1.369937 0.1400608,-0.688547 -0.1770354,-1.41032 -0.7723789,-1.780067 z"
       id="path15"
       inkscape:connector-curvature="0" /><path
       d="m 20.773977,36.661016 c 0.79896,0 1.504035,-0.578475 1.667609,-1.35818 0.144832,-0.690422 -0.166982,-1.422248 -0.768289,-1.793187 -0.630615,-0.388831 -1.465186,-0.32306 -2.022703,0.166812 -0.51986,0.456816 -0.713764,1.206874 -0.478626,1.857594 0.240932,0.666737 0.891311,1.126961 1.602009,1.126961 z"
       id="path17"
       inkscape:connector-curvature="0" /><path
       d="m 21.673297,40.294417 c -0.630103,-0.390364 -1.464334,-0.323571 -2.022703,0.165279 -0.513897,0.44983 -0.706438,1.182849 -0.488338,1.828117 0.230538,0.682242 0.891141,1.156268 1.611721,1.156268 0.813273,0 1.530275,-0.600285 1.67664,-1.398904 0.124385,-0.679005 -0.191178,-1.387658 -0.77732,-1.75076 z"
       id="path19"
       inkscape:connector-curvature="0" /><path
       d="m 21.673297,47.077482 c -0.622095,-0.384912 -1.442354,-0.325957 -2.001404,0.147217 -0.536218,0.45392 -0.735234,1.212838 -0.500266,1.872589 0.238717,0.670656 0.8908,1.129857 1.60252,1.129857 0.801516,0 1.514429,-0.582905 1.671699,-1.369937 0.137164,-0.688036 -0.175843,-1.41049 -0.772549,-1.779726 z"
       id="path21"
       inkscape:connector-curvature="0" /></g><g
     id="g23"
     transform="translate(0,-311.608)" /><g
     id="g25"
     transform="translate(0,-311.608)" /><g
     id="g27"
     transform="translate(0,-311.608)" /><g
     id="g29"
     transform="translate(0,-311.608)" /><g
     id="g31"
     transform="translate(0,-311.608)" /><g
     id="g33"
     transform="translate(0,-311.608)" /><g
     id="g35"
     transform="translate(0,-311.608)" /><g
     id="g37"
     transform="translate(0,-311.608)" /><g
     id="g39"
     transform="translate(0,-311.608)" /><g
     id="g41"
     transform="translate(0,-311.608)" /><g
     id="g43"
     transform="translate(0,-311.608)" /><g
     id="g45"
     transform="translate(0,-311.608)" /><g
     id="g47"
     transform="translate(0,-311.608)" /><g
     id="g49"
     transform="translate(0,-311.608)" /><g
     id="g51"
     transform="translate(0,-311.608)" /></svg>