<?xml version="1.0" encoding="UTF-8" standalone="no"?>
<!-- Generator: Adobe Illustrator 19.0.0, SVG Export Plug-In . SVG Version: 6.00 Build 0)  -->

<svg
   xmlns:dc="http://purl.org/dc/elements/1.1/"
   xmlns:cc="http://creativecommons.org/ns#"
   xmlns:rdf="http://www.w3.org/1999/02/22-rdf-syntax-ns#"
   xmlns:svg="http://www.w3.org/2000/svg"
   xmlns="http://www.w3.org/2000/svg"
   xmlns:sodipodi="http://sodipodi.sourceforge.net/DTD/sodipodi-0.dtd"
   xmlns:inkscape="http://www.inkscape.org/namespaces/inkscape"
   version="1.1"
   id="Layer_1"
   x="0px"
   y="0px"
   viewBox="0 0 64.000001 64.000001"
   xml:space="preserve"
   inkscape:version="0.91 r13725"
   sodipodi:docname="ducat.svg"
   width="64"
   height="64"><metadata
     id="metadata215"><rdf:RDF><cc:Work
         rdf:about=""><dc:format>image/svg+xml</dc:format><dc:type
           rdf:resource="http://purl.org/dc/dcmitype/StillImage" /><dc:title></dc:title></cc:Work></rdf:RDF></metadata><defs
     id="defs213" /><sodipodi:namedview
     pagecolor="#ffffff"
     bordercolor="#666666"
     borderopacity="1"
     objecttolerance="10"
     gridtolerance="10"
     guidetolerance="10"
     inkscape:pageopacity="0"
     inkscape:pageshadow="2"
     inkscape:window-width="1680"
     inkscape:window-height="999"
     id="namedview211"
     showgrid="false"
     inkscape:zoom="5.4005567"
     inkscape:cx="29.581065"
     inkscape:cy="55.90517"
     inkscape:window-x="0"
     inkscape:window-y="0"
     inkscape:window-maximized="1"
     inkscape:current-layer="Layer_1" /><g
     id="g181"
     transform="translate(0,-430.39999)" /><g
     id="g183"
     transform="translate(0,-430.39999)" /><g
     id="g185"
     transform="translate(0,-430.39999)" /><g
     id="g187"
     transform="translate(0,-430.39999)" /><g
     id="g189"
     transform="translate(0,-430.39999)" /><g
     id="g191"
     transform="translate(0,-430.39999)" /><g
     id="g193"
     transform="translate(0,-430.39999)" /><g
     id="g195"
     transform="translate(0,-430.39999)" /><g
     id="g197"
     transform="translate(0,-430.39999)" /><g
     id="g199"
     transform="translate(0,-430.39999)" /><g
     id="g201"
     transform="translate(0,-430.39999)" /><g
     id="g203"
     transform="translate(0,-430.39999)" /><g
     id="g205"
     transform="translate(0,-430.39999)" /><g
     id="g207"
     transform="translate(0,-430.39999)" /><g
     id="g209"
     transform="translate(0,-430.39999)" /><g
     id="g4553"
     transform="matrix(0.13278008,0,0,0.12997563,-0.95601586,-1.06e-7)"><path
       inkscape:connector-curvature="0"
       id="path3"
       d="m 249.2,492.4 c -132,0 -240,-108 -240,-240 0,-132 108,-240 240,-240 132,0 240,108 240,240 0,132 -108,240 -240,240 z"
       style="fill:#e5a300;fill-opacity:1" /><circle
       id="circle5"
       r="224.8"
       cy="240"
       cx="247.2"
       style="fill:#efb30c" /><path
       style="fill:#e5a300"
       d="m 38.8,259.2 c 0,-124 100.8,-224.8 224.8,-224.8 55.2,0 105.6,20 144.8,52.8 C 367.6,38.4 306,7.2 237.2,7.2 113.2,7.2 12.4,108 12.4,232 c 0,68.8 31.2,130.4 80,172 C 58.8,364.8 38.8,314.4 38.8,259.2 Z"
       id="path9"
       inkscape:connector-curvature="0" /><path
       id="path13"
       d="m 247.2,480 c -132,0 -240,-108 -240,-240 0,-132 108,-240 240,-240 132,0 240,108 240,240 0,132 -108,240 -240,240 z m 0,-449.6 c -116,0 -209.6,94.4 -209.6,209.6 0,116 94.4,209.6 209.6,209.6 115.2,0 209.6,-94.4 209.6,-209.6 0,-115.2 -93.6,-209.6 -209.6,-209.6 z"
       style="fill:#efb30c;fill-opacity:1"
       inkscape:connector-curvature="0" /><g
       style="fill:#efcb0c;fill-opacity:1"
       id="g25"><path
         id="path27"
         d="m 248.8,22.4 c 0,0.8 -0.8,1.6 -1.6,1.6 l 0,0 c -0.8,0 -1.6,-0.8 -1.6,-1.6 l 0,-15.2 c 0,-0.8 0.8,-1.6 1.6,-1.6 l 0,0 c 0.8,0 1.6,0.8 1.6,1.6 l 0,15.2 z"
         style="fill:#efcb0c;fill-opacity:1"
         inkscape:connector-curvature="0" /><path
         id="path29"
         d="m 248.8,473.6 c 0,0.8 -0.8,1.6 -1.6,1.6 l 0,0 c -0.8,0 -1.6,-0.8 -1.6,-1.6 l 0,-15.2 c 0,-0.8 0.8,-1.6 1.6,-1.6 l 0,0 c 0.8,0 1.6,0.8 1.6,1.6 l 0,15.2 z"
         style="fill:#efcb0c;fill-opacity:1"
         inkscape:connector-curvature="0" /><path
         id="path31"
         d="m 402.4,88 c -0.8,0.8 -1.6,0.8 -2.4,0 l 0,0 c -0.8,-0.8 -0.8,-1.6 0,-2.4 l 11.2,-11.2 c 0.8,-0.8 1.6,-0.8 2.4,0 l 0,0 c 0.8,0.8 0.8,1.6 0,2.4 L 402.4,88 Z"
         style="fill:#efcb0c;fill-opacity:1"
         inkscape:connector-curvature="0" /><path
         id="path33"
         d="m 84,406.4 c -0.8,0.8 -1.6,0.8 -2.4,0 l 0,0 c -0.8,-0.8 -0.8,-1.6 0,-2.4 l 11.2,-11.2 c 0.8,-0.8 1.6,-0.8 2.4,0 l 0,0 c 0.8,0.8 0.8,1.6 0,2.4 L 84,406.4 Z"
         style="fill:#efcb0c;fill-opacity:1"
         inkscape:connector-curvature="0" /><path
         id="path35"
         d="m 464.8,242.4 c -0.8,0 -1.6,-0.8 -1.6,-1.6 l 0,0 c 0,-0.8 0.8,-1.6 1.6,-1.6 l 15.2,0 c 0.8,0 1.6,0.8 1.6,1.6 l 0,0 c 0,0.8 -0.8,1.6 -1.6,1.6 l -15.2,0 z"
         style="fill:#efcb0c;fill-opacity:1"
         inkscape:connector-curvature="0" /><path
         id="path37"
         d="m 14.4,242.4 c -0.8,0 -1.6,-0.8 -1.6,-1.6 l 0,0 c 0,-0.8 0.8,-1.6 1.6,-1.6 l 15.2,0 c 0.8,-0.8 1.6,0 1.6,0.8 l 0,0 c 0,0.8 -0.8,1.6 -1.6,1.6 l -15.2,0 0,0.8 z"
         style="fill:#efcb0c;fill-opacity:1"
         inkscape:connector-curvature="0" /><path
         id="path39"
         d="m 400,396 c -0.8,-0.8 -0.8,-1.6 0,-2.4 l 0,0 c 0.8,-0.8 1.6,-0.8 2.4,0 l 11.2,11.2 c 0.8,0.8 0.8,1.6 0,2.4 l 0,0 c -0.8,0.8 -1.6,0.8 -2.4,0 L 400,396 Z"
         style="fill:#efcb0c;fill-opacity:1"
         inkscape:connector-curvature="0" /><path
         id="path41"
         d="M 80.8,76.8 C 80,76 80,75.2 80.8,74.4 l 0,0 c 0.8,-0.8 1.6,-0.8 2.4,0 l 11.2,11.2 c 0.8,0.8 0.8,1.6 0,2.4 l 0,0 c -0.8,0.8 -1.6,0.8 -2.4,0 L 80.8,76.8 Z"
         style="fill:#efcb0c;fill-opacity:1"
         inkscape:connector-curvature="0" /><path
         id="path43"
         d="m 140,51.2 c 0.8,0.8 0,2.4 -0.8,2.4 l 0,0 c -0.8,0.8 -2.4,0 -2.4,-0.8 l -8,-13.6 c -0.8,-0.8 0,-2.4 0.8,-2.4 l 0,0 c 0.8,-0.8 2.4,0 2.4,0.8 l 8,13.6 z"
         style="fill:#efcb0c;fill-opacity:1"
         inkscape:connector-curvature="0" /><path
         id="path45"
         d="m 365.6,441.6 c 0.8,0.8 0,2.4 -0.8,2.4 l 0,0 c -0.8,0.8 -2.4,0 -2.4,-0.8 l -8,-13.6 c -0.8,-0.8 0,-2.4 0.8,-2.4 l 0,0 c 0.8,-0.8 2.4,0 2.4,0.8 l 8,13.6 z"
         style="fill:#efcb0c;fill-opacity:1"
         inkscape:connector-curvature="0" /><path
         id="path47"
         d="m 305.6,30.4 c 0,0.8 -1.6,1.6 -2.4,1.6 l 0,0 c -0.8,0 -1.6,-1.6 -1.6,-2.4 l 4,-15.2 c 0,-0.8 1.6,-1.6 2.4,-1.6 l 0,0 c 0.8,0 1.6,1.6 1.6,2.4 l -4,15.2 z"
         style="fill:#efcb0c;fill-opacity:1"
         inkscape:connector-curvature="0" /><path
         id="path49"
         d="m 188.8,465.6 c 0,0.8 -1.6,1.6 -2.4,1.6 l 0,0 c -0.8,0 -1.6,-1.6 -1.6,-2.4 l 4,-15.2 c 0,-0.8 1.6,-1.6 2.4,-1.6 l 0,0 c 0.8,0 1.6,1.6 1.6,2.4 l -4,15.2 z"
         style="fill:#efcb0c;fill-opacity:1"
         inkscape:connector-curvature="0" /><path
         id="path51"
         d="m 436.8,132.8 c -0.8,0.8 -2.4,0 -2.4,-0.8 l 0,0 c -0.8,-0.8 0,-2.4 0.8,-2.4 l 13.6,-8 c 0.8,-0.8 2.4,0 2.4,0.8 l 0,0 c 0.8,0.8 0,2.4 -0.8,2.4 l -13.6,8 z"
         style="fill:#efcb0c;fill-opacity:1"
         inkscape:connector-curvature="0" /><path
         id="path53"
         d="m 46.4,358.4 c -0.8,0.8 -2.4,0 -2.4,-0.8 l 0,0 c -0.8,-0.8 0,-2.4 0.8,-2.4 l 13.6,-8 c 0.8,-0.8 2.4,0 2.4,0.8 l 0,0 c 0.8,0.8 0,2.4 -0.8,2.4 l -13.6,8 z"
         style="fill:#efcb0c;fill-opacity:1"
         inkscape:connector-curvature="0" /><path
         id="path55"
         d="m 456.8,298.4 c -0.8,0 -1.6,-1.6 -1.6,-2.4 l 0,0 c 0,-0.8 1.6,-1.6 2.4,-1.6 l 15.2,4 c 0.8,0 1.6,1.6 1.6,2.4 l 0,0 c 0,0.8 -1.6,1.6 -2.4,1.6 l -15.2,-4 z"
         style="fill:#efcb0c;fill-opacity:1"
         inkscape:connector-curvature="0" /><path
         id="path57"
         d="m 21.6,181.6 c -0.8,0 -1.6,-1.6 -1.6,-2.4 l 0,0 c 0,-0.8 1.6,-1.6 2.4,-1.6 l 15.2,4 c 0.8,0 1.6,1.6 1.6,2.4 l 0,0 c 0,0.8 -1.6,1.6 -2.4,1.6 l -15.2,-4 z"
         style="fill:#efcb0c;fill-opacity:1"
         inkscape:connector-curvature="0" /><path
         id="path59"
         d="m 60,129.6 c 0.8,0.8 1.6,1.6 0.8,2.4 l 0,0 c -0.8,0.8 -1.6,1.6 -2.4,0.8 l -13.6,-8 C 44,124 43.2,123.2 44,122.4 l 0,0 c 0.8,-0.8 1.6,-1.6 2.4,-0.8 l 13.6,8 z"
         style="fill:#efcb0c;fill-opacity:1"
         inkscape:connector-curvature="0" /><path
         id="path61"
         d="m 450.4,355.2 c 0.8,0.8 1.6,1.6 0.8,2.4 l 0,0 c -0.8,0.8 -1.6,1.6 -2.4,0.8 l -13.6,-8 c -0.8,-0.8 -1.6,-1.6 -0.8,-2.4 l 0,0 c 0.8,-0.8 1.6,-1.6 2.4,-0.8 l 13.6,8 z"
         style="fill:#efcb0c;fill-opacity:1"
         inkscape:connector-curvature="0" /><path
         id="path63"
         d="m 192.8,29.6 c 0,0.8 0,2.4 -1.6,2.4 l 0,0 c -0.8,0 -2.4,0 -2.4,-1.6 l -4,-15.2 c 0,-0.8 0,-2.4 1.6,-2.4 l 0,0 c 0.8,0 2.4,0 2.4,1.6 l 4,15.2 z"
         style="fill:#efcb0c;fill-opacity:1"
         inkscape:connector-curvature="0" /><path
         id="path65"
         d="m 309.6,464.8 c 0,0.8 0,2.4 -1.6,2.4 l 0,0 c -0.8,0 -2.4,0 -2.4,-1.6 l -4,-15.2 c 0,-0.8 0,-2.4 1.6,-2.4 l 0,0 c 0.8,0 2.4,0 2.4,1.6 l 4,15.2 z"
         style="fill:#efcb0c;fill-opacity:1"
         inkscape:connector-curvature="0" /><path
         id="path67"
         d="m 357.6,52.8 c -0.8,0.8 -1.6,1.6 -2.4,0.8 l 0,0 c -0.8,-0.8 -1.6,-1.6 -0.8,-2.4 l 8,-13.6 c 0.8,-0.8 1.6,-1.6 2.4,-0.8 l 0,0 c 0.8,0.8 1.6,1.6 0.8,2.4 l -8,13.6 z"
         style="fill:#efcb0c;fill-opacity:1"
         inkscape:connector-curvature="0" /><path
         id="path69"
         d="m 132,443.2 c -0.8,0.8 -1.6,1.6 -2.4,0.8 l 0,0 c -0.8,-0.8 -1.6,-1.6 -0.8,-2.4 l 8,-13.6 c 0.8,-0.8 1.6,-1.6 2.4,-0.8 l 0,0 c 0.8,0.8 1.6,1.6 0.8,2.4 l -8,13.6 z"
         style="fill:#efcb0c;fill-opacity:1"
         inkscape:connector-curvature="0" /><path
         id="path71"
         d="m 457.6,185.6 c -0.8,0 -2.4,0 -2.4,-1.6 l 0,0 c 0,-0.8 0,-2.4 1.6,-2.4 l 15.2,-4 c 0.8,0 2.4,0 2.4,1.6 l 0,0 c 0,0.8 0,2.4 -1.6,2.4 l -15.2,4 z"
         style="fill:#efcb0c;fill-opacity:1"
         inkscape:connector-curvature="0" /><path
         id="path73"
         d="m 22.4,302.4 c -0.8,0 -2.4,0 -2.4,-1.6 l 0,0 c 0,-0.8 0,-2.4 1.6,-2.4 l 15.2,-4 c 0.8,0 2.4,0 2.4,1.6 l 0,0 c 0,0.8 0,2.4 -1.6,2.4 l -15.2,4 z"
         style="fill:#efcb0c;fill-opacity:1"
         inkscape:connector-curvature="0" /></g><g
       transform="matrix(1.1692476,0,0,1.1692476,412.17678,-88.813026)"
       id="g4491"><g
         style="fill:#efcb0c;fill-opacity:1"
         transform="translate(-268.70681,147.22877)"
         id="g4411"><g
           style="fill:#efcb0c;fill-opacity:1"
           id="g4413"><g
             style="fill:#efcb0c;fill-opacity:1"
             id="g4415"><path
               inkscape:connector-curvature="0"
               style="fill:#efcb0c;fill-opacity:1"
               d="m 219.171,216.785 c -4.762,0 -10.322,2.3 -16.672,6.881 l -35.211,-12.968 35.734,-12.978 c 6.003,3.888 11.558,5.833 16.682,5.833 5.639,0 9.347,-2.917 11.117,-8.733 0.351,-1.235 0.527,-2.57 0.527,-3.981 0,-7.397 -4.766,-11.378 -14.295,-11.9 3.876,-3.882 5.828,-7.687 5.828,-11.392 0,-3.871 -2.039,-7.149 -6.092,-9.797 -2.118,-1.049 -4.325,-1.584 -6.615,-1.584 -7.769,0 -13.064,6.258 -15.887,18.797 l -61.941,23.039 -61.94,-22.504 c -2.823,-12.885 -8.125,-19.332 -15.885,-19.332 -2.293,0 -4.501,0.535 -6.62,1.584 -3.876,2.647 -5.82,5.926 -5.82,9.797 0,3.705 1.944,7.51 5.82,11.392 -9.701,0.522 -14.555,4.503 -14.555,11.901 0,1.41 0.179,2.746 0.526,3.98 1.946,5.816 5.651,8.733 11.122,8.733 5.113,0 10.671,-1.945 16.677,-5.832 l 35.998,12.977 -35.476,12.698 c -6.175,-4.406 -11.637,-6.611 -16.402,-6.611 -5.654,0 -9.623,2.918 -11.919,8.733 -0.348,1.235 -0.526,2.553 -0.526,3.975 0,7.405 4.853,11.385 14.555,11.907 -3.876,3.883 -5.82,7.688 -5.82,11.393 0,3.869 1.944,7.134 5.82,9.797 2.477,1.412 4.854,2.105 7.153,2.105 7.227,0 12.443,-6.176 15.619,-18.525 l 61.673,-22.504 61.678,22.504 c 3.178,12.35 8.475,18.525 15.882,18.525 2.121,0 4.407,-0.693 6.884,-2.105 4.052,-2.663 6.092,-5.928 6.092,-9.797 0,-3.705 -1.953,-7.51 -5.828,-11.393 9.528,-0.522 14.295,-4.502 14.295,-11.907 0,-1.422 -0.177,-2.739 -0.527,-3.975 -2.12,-5.816 -6.002,-8.733 -11.651,-8.733 z"
               id="path4417" /><path
               inkscape:connector-curvature="0"
               style="fill:#efcb0c;fill-opacity:1"
               d="m 48.436,128.904 c 9.703,11.114 23.379,19.242 41.035,24.346 l 0,3.986 c 0,4.936 1.672,9.086 5.025,12.433 3.35,3.358 7.498,5.211 12.441,5.563 5.116,0.357 8.905,-0.528 11.378,-2.646 3.879,2.817 8.204,4.229 12.974,4.229 4.41,0 8.474,-1.316 12.175,-3.963 2.471,1.934 6.087,2.738 10.856,2.381 4.937,-0.528 9.089,-2.426 12.44,-5.689 3.35,-3.281 5.025,-7.371 5.025,-12.307 l 0,-2.91 c 19.057,-4.945 33.795,-13.237 44.21,-24.898 10.059,-11.109 15.087,-24.253 15.087,-39.435 0,-3.359 -0.355,-6.886 -1.063,-10.597 C 226.494,56.826 216.081,38.196 198.79,23.553 180.612,7.856 158.464,0 132.347,0 106.224,0 84.077,7.767 65.907,23.282 48.61,38.118 38.289,56.825 34.937,79.396 c -0.709,3.711 -1.064,7.238 -1.064,10.597 0,14.824 4.851,27.785 14.563,38.911 l 0,0 z M 152.865,60.749 c 5.206,-6.085 11.514,-9.13 18.922,-9.13 7.592,0 13.986,3.045 19.194,9.13 5.2,6.076 7.81,13.446 7.81,22.087 0,8.649 -2.609,16.021 -7.81,22.108 -5.208,6.097 -11.603,9.13 -19.194,9.13 -7.408,0 -13.716,-3.033 -18.922,-9.13 -5.211,-6.087 -7.814,-13.459 -7.814,-22.108 -10e-4,-8.641 2.603,-16.011 7.814,-22.087 z m -28.06,60.679 c 2.556,-3.307 5.065,-4.968 7.542,-4.968 2.47,0 4.802,1.831 7.012,5.509 2.205,3.662 3.317,7.145 3.317,10.469 0,5.062 -3.361,7.581 -10.067,7.581 -4.414,0 -7.677,-1.136 -9.792,-3.396 -1.237,-1.411 -1.849,-3.147 -1.849,-5.249 10e-4,-3.309 1.277,-6.622 3.837,-9.946 z M 71.465,60.749 c 5.295,-6.085 11.65,-9.13 19.059,-9.13 7.406,0 13.762,3.045 19.06,9.13 5.296,6.076 7.948,13.446 7.948,22.087 0,8.649 -2.651,16.021 -7.948,22.108 -5.297,6.097 -11.654,9.13 -19.06,9.13 -7.409,0 -13.764,-3.033 -19.059,-9.13 -5.292,-6.087 -7.944,-13.459 -7.944,-22.108 0,-8.641 2.652,-16.011 7.944,-22.087 z"
               id="path4419" /></g></g><g
           style="fill:#efcb0c;fill-opacity:1"
           id="g4421" /><g
           style="fill:#efcb0c;fill-opacity:1"
           id="g4423" /><g
           style="fill:#efcb0c;fill-opacity:1"
           id="g4425" /><g
           style="fill:#efcb0c;fill-opacity:1"
           id="g4427" /><g
           style="fill:#efcb0c;fill-opacity:1"
           id="g4429" /><g
           style="fill:#efcb0c;fill-opacity:1"
           id="g4431" /><g
           style="fill:#efcb0c;fill-opacity:1"
           id="g4433" /><g
           style="fill:#efcb0c;fill-opacity:1"
           id="g4435" /><g
           style="fill:#efcb0c;fill-opacity:1"
           id="g4437" /><g
           style="fill:#efcb0c;fill-opacity:1"
           id="g4439" /><g
           style="fill:#efcb0c;fill-opacity:1"
           id="g4441" /><g
           style="fill:#efcb0c;fill-opacity:1"
           id="g4443" /><g
           style="fill:#efcb0c;fill-opacity:1"
           id="g4445" /><g
           style="fill:#efcb0c;fill-opacity:1"
           id="g4447" /><g
           style="fill:#efcb0c;fill-opacity:1"
           id="g4449" /></g><g
         style="fill:#e5a300;fill-opacity:1"
         transform="translate(-262.13732,154.84572)"
         id="g4451"><g
           style="fill:#e5a300;fill-opacity:1"
           id="g4453"><g
             style="fill:#e5a300;fill-opacity:1"
             id="g4455"><path
               inkscape:connector-curvature="0"
               style="fill:#e5a300;fill-opacity:1"
               d="m 219.171,216.785 c -4.762,0 -10.322,2.3 -16.672,6.881 l -35.211,-12.968 35.734,-12.978 c 6.003,3.888 11.558,5.833 16.682,5.833 5.639,0 9.347,-2.917 11.117,-8.733 0.351,-1.235 0.527,-2.57 0.527,-3.981 0,-7.397 -4.766,-11.378 -14.295,-11.9 3.876,-3.882 5.828,-7.687 5.828,-11.392 0,-3.871 -2.039,-7.149 -6.092,-9.797 -2.118,-1.049 -4.325,-1.584 -6.615,-1.584 -7.769,0 -13.064,6.258 -15.887,18.797 l -61.941,23.039 -61.94,-22.504 c -2.823,-12.885 -8.125,-19.332 -15.885,-19.332 -2.293,0 -4.501,0.535 -6.62,1.584 -3.876,2.647 -5.82,5.926 -5.82,9.797 0,3.705 1.944,7.51 5.82,11.392 -9.701,0.522 -14.555,4.503 -14.555,11.901 0,1.41 0.179,2.746 0.526,3.98 1.946,5.816 5.651,8.733 11.122,8.733 5.113,0 10.671,-1.945 16.677,-5.832 l 35.998,12.977 -35.476,12.698 c -6.175,-4.406 -11.637,-6.611 -16.402,-6.611 -5.654,0 -9.623,2.918 -11.919,8.733 -0.348,1.235 -0.526,2.553 -0.526,3.975 0,7.405 4.853,11.385 14.555,11.907 -3.876,3.883 -5.82,7.688 -5.82,11.393 0,3.869 1.944,7.134 5.82,9.797 2.477,1.412 4.854,2.105 7.153,2.105 7.227,0 12.443,-6.176 15.619,-18.525 l 61.673,-22.504 61.678,22.504 c 3.178,12.35 8.475,18.525 15.882,18.525 2.121,0 4.407,-0.693 6.884,-2.105 4.052,-2.663 6.092,-5.928 6.092,-9.797 0,-3.705 -1.953,-7.51 -5.828,-11.393 9.528,-0.522 14.295,-4.502 14.295,-11.907 0,-1.422 -0.177,-2.739 -0.527,-3.975 -2.12,-5.816 -6.002,-8.733 -11.651,-8.733 z"
               id="path4457" /><path
               inkscape:connector-curvature="0"
               style="fill:#e5a300;fill-opacity:1"
               d="m 48.436,128.904 c 9.703,11.114 23.379,19.242 41.035,24.346 l 0,3.986 c 0,4.936 1.672,9.086 5.025,12.433 3.35,3.358 7.498,5.211 12.441,5.563 5.116,0.357 8.905,-0.528 11.378,-2.646 3.879,2.817 8.204,4.229 12.974,4.229 4.41,0 8.474,-1.316 12.175,-3.963 2.471,1.934 6.087,2.738 10.856,2.381 4.937,-0.528 9.089,-2.426 12.44,-5.689 3.35,-3.281 5.025,-7.371 5.025,-12.307 l 0,-2.91 c 19.057,-4.945 33.795,-13.237 44.21,-24.898 10.059,-11.109 15.087,-24.253 15.087,-39.435 0,-3.359 -0.355,-6.886 -1.063,-10.597 C 226.494,56.826 216.081,38.196 198.79,23.553 180.612,7.856 158.464,0 132.347,0 106.224,0 84.077,7.767 65.907,23.282 48.61,38.118 38.289,56.825 34.937,79.396 c -0.709,3.711 -1.064,7.238 -1.064,10.597 0,14.824 4.851,27.785 14.563,38.911 l 0,0 z M 152.865,60.749 c 5.206,-6.085 11.514,-9.13 18.922,-9.13 7.592,0 13.986,3.045 19.194,9.13 5.2,6.076 7.81,13.446 7.81,22.087 0,8.649 -2.609,16.021 -7.81,22.108 -5.208,6.097 -11.603,9.13 -19.194,9.13 -7.408,0 -13.716,-3.033 -18.922,-9.13 -5.211,-6.087 -7.814,-13.459 -7.814,-22.108 -10e-4,-8.641 2.603,-16.011 7.814,-22.087 z m -28.06,60.679 c 2.556,-3.307 5.065,-4.968 7.542,-4.968 2.47,0 4.802,1.831 7.012,5.509 2.205,3.662 3.317,7.145 3.317,10.469 0,5.062 -3.361,7.581 -10.067,7.581 -4.414,0 -7.677,-1.136 -9.792,-3.396 -1.237,-1.411 -1.849,-3.147 -1.849,-5.249 10e-4,-3.309 1.277,-6.622 3.837,-9.946 z M 71.465,60.749 c 5.295,-6.085 11.65,-9.13 19.059,-9.13 7.406,0 13.762,3.045 19.06,9.13 5.296,6.076 7.948,13.446 7.948,22.087 0,8.649 -2.651,16.021 -7.948,22.108 -5.297,6.097 -11.654,9.13 -19.06,9.13 -7.409,0 -13.764,-3.033 -19.059,-9.13 -5.292,-6.087 -7.944,-13.459 -7.944,-22.108 0,-8.641 2.652,-16.011 7.944,-22.087 z"
               id="path4459" /></g></g><g
           style="fill:#e5a300;fill-opacity:1"
           id="g4461" /><g
           style="fill:#e5a300;fill-opacity:1"
           id="g4463" /><g
           style="fill:#e5a300;fill-opacity:1"
           id="g4465" /><g
           style="fill:#e5a300;fill-opacity:1"
           id="g4467" /><g
           style="fill:#e5a300;fill-opacity:1"
           id="g4469" /><g
           style="fill:#e5a300;fill-opacity:1"
           id="g4471" /><g
           style="fill:#e5a300;fill-opacity:1"
           id="g4473" /><g
           style="fill:#e5a300;fill-opacity:1"
           id="g4475" /><g
           style="fill:#e5a300;fill-opacity:1"
           id="g4477" /><g
           style="fill:#e5a300;fill-opacity:1"
           id="g4479" /><g
           style="fill:#e5a300;fill-opacity:1"
           id="g4481" /><g
           style="fill:#e5a300;fill-opacity:1"
           id="g4483" /><g
           style="fill:#e5a300;fill-opacity:1"
           id="g4485" /><g
           style="fill:#e5a300;fill-opacity:1"
           id="g4487" /><g
           style="fill:#e5a300;fill-opacity:1"
           id="g4489" /></g><g
         id="g4388"
         transform="translate(-265.37461,150.46606)"
         style="fill:#efb30c;fill-opacity:1"><g
           id="g4344"
           style="fill:#efb30c;fill-opacity:1"><g
             id="g4346"
             style="fill:#efb30c;fill-opacity:1"><path
               id="path4348"
               d="m 219.171,216.785 c -4.762,0 -10.322,2.3 -16.672,6.881 l -35.211,-12.968 35.734,-12.978 c 6.003,3.888 11.558,5.833 16.682,5.833 5.639,0 9.347,-2.917 11.117,-8.733 0.351,-1.235 0.527,-2.57 0.527,-3.981 0,-7.397 -4.766,-11.378 -14.295,-11.9 3.876,-3.882 5.828,-7.687 5.828,-11.392 0,-3.871 -2.039,-7.149 -6.092,-9.797 -2.118,-1.049 -4.325,-1.584 -6.615,-1.584 -7.769,0 -13.064,6.258 -15.887,18.797 l -61.941,23.039 -61.94,-22.504 c -2.823,-12.885 -8.125,-19.332 -15.885,-19.332 -2.293,0 -4.501,0.535 -6.62,1.584 -3.876,2.647 -5.82,5.926 -5.82,9.797 0,3.705 1.944,7.51 5.82,11.392 -9.701,0.522 -14.555,4.503 -14.555,11.901 0,1.41 0.179,2.746 0.526,3.98 1.946,5.816 5.651,8.733 11.122,8.733 5.113,0 10.671,-1.945 16.677,-5.832 l 35.998,12.977 -35.476,12.698 c -6.175,-4.406 -11.637,-6.611 -16.402,-6.611 -5.654,0 -9.623,2.918 -11.919,8.733 -0.348,1.235 -0.526,2.553 -0.526,3.975 0,7.405 4.853,11.385 14.555,11.907 -3.876,3.883 -5.82,7.688 -5.82,11.393 0,3.869 1.944,7.134 5.82,9.797 2.477,1.412 4.854,2.105 7.153,2.105 7.227,0 12.443,-6.176 15.619,-18.525 l 61.673,-22.504 61.678,22.504 c 3.178,12.35 8.475,18.525 15.882,18.525 2.121,0 4.407,-0.693 6.884,-2.105 4.052,-2.663 6.092,-5.928 6.092,-9.797 0,-3.705 -1.953,-7.51 -5.828,-11.393 9.528,-0.522 14.295,-4.502 14.295,-11.907 0,-1.422 -0.177,-2.739 -0.527,-3.975 -2.12,-5.816 -6.002,-8.733 -11.651,-8.733 z"
               style="fill:#efb30c;fill-opacity:1"
               inkscape:connector-curvature="0" /><path
               id="path4350"
               d="m 48.436,128.904 c 9.703,11.114 23.379,19.242 41.035,24.346 l 0,3.986 c 0,4.936 1.672,9.086 5.025,12.433 3.35,3.358 7.498,5.211 12.441,5.563 5.116,0.357 8.905,-0.528 11.378,-2.646 3.879,2.817 8.204,4.229 12.974,4.229 4.41,0 8.474,-1.316 12.175,-3.963 2.471,1.934 6.087,2.738 10.856,2.381 4.937,-0.528 9.089,-2.426 12.44,-5.689 3.35,-3.281 5.025,-7.371 5.025,-12.307 l 0,-2.91 c 19.057,-4.945 33.795,-13.237 44.21,-24.898 10.059,-11.109 15.087,-24.253 15.087,-39.435 0,-3.359 -0.355,-6.886 -1.063,-10.597 C 226.494,56.826 216.081,38.196 198.79,23.553 180.612,7.856 158.464,0 132.347,0 106.224,0 84.077,7.767 65.907,23.282 48.61,38.118 38.289,56.825 34.937,79.396 c -0.709,3.711 -1.064,7.238 -1.064,10.597 0,14.824 4.851,27.785 14.563,38.911 l 0,0 z M 152.865,60.749 c 5.206,-6.085 11.514,-9.13 18.922,-9.13 7.592,0 13.986,3.045 19.194,9.13 5.2,6.076 7.81,13.446 7.81,22.087 0,8.649 -2.609,16.021 -7.81,22.108 -5.208,6.097 -11.603,9.13 -19.194,9.13 -7.408,0 -13.716,-3.033 -18.922,-9.13 -5.211,-6.087 -7.814,-13.459 -7.814,-22.108 -10e-4,-8.641 2.603,-16.011 7.814,-22.087 z m -28.06,60.679 c 2.556,-3.307 5.065,-4.968 7.542,-4.968 2.47,0 4.802,1.831 7.012,5.509 2.205,3.662 3.317,7.145 3.317,10.469 0,5.062 -3.361,7.581 -10.067,7.581 -4.414,0 -7.677,-1.136 -9.792,-3.396 -1.237,-1.411 -1.849,-3.147 -1.849,-5.249 10e-4,-3.309 1.277,-6.622 3.837,-9.946 z M 71.465,60.749 c 5.295,-6.085 11.65,-9.13 19.059,-9.13 7.406,0 13.762,3.045 19.06,9.13 5.296,6.076 7.948,13.446 7.948,22.087 0,8.649 -2.651,16.021 -7.948,22.108 -5.297,6.097 -11.654,9.13 -19.06,9.13 -7.409,0 -13.764,-3.033 -19.059,-9.13 -5.292,-6.087 -7.944,-13.459 -7.944,-22.108 0,-8.641 2.652,-16.011 7.944,-22.087 z"
               style="fill:#efb30c;fill-opacity:1"
               inkscape:connector-curvature="0" /></g></g><g
           id="g4352"
           style="fill:#efb30c;fill-opacity:1" /><g
           id="g4354"
           style="fill:#efb30c;fill-opacity:1" /><g
           id="g4356"
           style="fill:#efb30c;fill-opacity:1" /><g
           id="g4358"
           style="fill:#efb30c;fill-opacity:1" /><g
           id="g4360"
           style="fill:#efb30c;fill-opacity:1" /><g
           id="g4362"
           style="fill:#efb30c;fill-opacity:1" /><g
           id="g4364"
           style="fill:#efb30c;fill-opacity:1" /><g
           id="g4366"
           style="fill:#efb30c;fill-opacity:1" /><g
           id="g4368"
           style="fill:#efb30c;fill-opacity:1" /><g
           id="g4370"
           style="fill:#efb30c;fill-opacity:1" /><g
           id="g4372"
           style="fill:#efb30c;fill-opacity:1" /><g
           id="g4374"
           style="fill:#efb30c;fill-opacity:1" /><g
           id="g4376"
           style="fill:#efb30c;fill-opacity:1" /><g
           id="g4378"
           style="fill:#efb30c;fill-opacity:1" /><g
           id="g4380"
           style="fill:#efb30c;fill-opacity:1" /></g></g></g></svg>