<?xml version="1.0" encoding="UTF-8" standalone="no"?>
<!-- Generator: Adobe Illustrator 19.0.0, SVG Export Plug-In . SVG Version: 6.00 Build 0)  -->

<svg
   xmlns:dc="http://purl.org/dc/elements/1.1/"
   xmlns:cc="http://creativecommons.org/ns#"
   xmlns:rdf="http://www.w3.org/1999/02/22-rdf-syntax-ns#"
   xmlns:svg="http://www.w3.org/2000/svg"
   xmlns="http://www.w3.org/2000/svg"
   xmlns:sodipodi="http://sodipodi.sourceforge.net/DTD/sodipodi-0.dtd"
   xmlns:inkscape="http://www.inkscape.org/namespaces/inkscape"
   version="1.1"
   id="Layer_1"
   x="0px"
   y="0px"
   viewBox="0 0 512 512"
   style="enable-background:new 0 0 512 512;"
   xml:space="preserve"
   inkscape:version="0.91 r13725"
   sodipodi:docname="pirate-ship.svg"><metadata
     id="metadata85"><rdf:RDF><cc:Work
         rdf:about=""><dc:format>image/svg+xml</dc:format><dc:type
           rdf:resource="http://purl.org/dc/dcmitype/StillImage" /></cc:Work></rdf:RDF></metadata><defs
     id="defs83" /><sodipodi:namedview
     pagecolor="#ffffff"
     bordercolor="#666666"
     borderopacity="1"
     objecttolerance="10"
     gridtolerance="10"
     guidetolerance="10"
     inkscape:pageopacity="0"
     inkscape:pageshadow="2"
     inkscape:window-width="1680"
     inkscape:window-height="999"
     id="namedview81"
     showgrid="false"
     inkscape:zoom="0.921875"
     inkscape:cx="121.81245"
     inkscape:cy="149.08057"
     inkscape:window-x="0"
     inkscape:window-y="0"
     inkscape:window-maximized="1"
     inkscape:current-layer="Layer_1" /><rect
     style="fill:#2a7fff;fill-opacity:1;stroke:#000000;stroke-width:15.44063187"
     id="rect3413"
     width="492.70874"
     height="492.70874"
     x="9.6456299"
     y="9.6456299"
     ry="111.03229" /><path
     style="fill:#ffffff;fill-opacity:1;stroke:none;stroke-width:16"
     d="m 142.11402,298.00014 c 1.32315,-21.88734 0.48585,-55.56905 -1.94286,-78.15495 -2.99063,-27.81146 -10.60212,-67.1606 -17.0997,-88.40033 l -1.11457,-3.6434 99.0637,0.0204 99.0637,0.0204 3.32546,4.67542 c 14.20295,19.96857 22.57348,41.3002 26.74272,68.15173 1.89345,12.19451 1.87808,45.13807 -0.0278,59.44491 -2.80878,21.08528 -9.14056,47.52566 -11.23681,46.92286 -0.63906,-0.18376 -5.14478,-1.5553 -10.01271,-3.04786 -43.72441,-13.40631 -102.89779,-13.58577 -168.21261,-0.51013 -8.37092,1.67581 -16.09811,3.26735 -17.17153,3.53675 l -1.95168,0.48984 0.57465,-9.50565 z"
     id="path4379"
     inkscape:connector-curvature="0" /><path
     style="fill:#502d16;fill-opacity:1;stroke:none;stroke-width:12.27249718"
     d="m 58.130859,324.47266 c -4.110691,0.45097 -2.878924,5.69124 0.484375,6.40234 4.679327,3.65175 13.525835,3.47954 13.343372,10.86031 1.900652,5.70133 0.89453,13.3094 7.51455,15.91231 3.202082,2.79841 7.650388,4.82204 9.91161,8.28988 -3.942711,19.01903 -1.5493,41.9083 14.209854,55.13014 11.42076,9.4886 26.86034,11.09263 41.14943,10.55697 54.63024,0.22116 109.28165,0.89051 163.9025,-0.21141 27.77292,-0.62365 55.19782,-16.89094 67.1347,-42.32726 6.36061,-13.46978 10.01236,-28.46862 10.19531,-43.34961 -0.81184,-5.2746 -7.26933,-0.99725 -10.20117,-0.58203 -12.9318,4.31795 -26.78219,6.35955 -39.06445,12.4082 -26.1645,19.83945 -60.38377,24.12003 -92.01308,25.03416 -25.7031,0.76198 -51.62543,-2.33528 -75.80138,-11.1201 -17.04242,-5.62223 -32.61011,-14.77383 -46.95129,-25.40451 -19.84384,-8.45613 -40.79575,-14.13129 -61.226626,-21.01767 -0.849316,-0.19413 -1.701503,-0.64531 -2.587705,-0.58172 z m 152.265621,70.74023 c 8.57048,0.33871 9.22317,14.18767 0.71875,15.11523 -8.54584,1.61713 -11.30745,-11.66994 -3.5957,-14.51367 0.89009,-0.42382 1.88569,-0.68655 2.87695,-0.60156 z m 73.48047,-0.002 c 7.60717,0.44734 9.657,12.00023 2.49024,14.63281 -5.52668,2.10337 -12.2866,-3.02086 -9.6836,-9.12305 0.6941,-3.16115 4.07898,-5.42047 7.19336,-5.50976 z m -36.91992,0.14844 c 8.03537,-0.003 9.80248,13.05872 1.80078,14.70898 -9.67191,2.94072 -13.86564,-12.90713 -1.80078,-14.70898 z m -73.20898,0.0859 c 8.56667,0.113 9.19833,14.37354 0.45703,14.89063 -8.04798,1.59866 -11.71323,-11.68935 -3.61524,-14.22656 0.9767,-0.47576 2.06975,-0.72952 3.15821,-0.66407 z"
     id="path4356"
     inkscape:connector-curvature="0" /><g
     id="g3"
     transform="matrix(0.86151481,0,0,0.86151481,35.452208,35.452208)"><g
       id="g5"><path
         d="m 501.344,309.196 c -1.031,0 -2.016,0.156 -2.953,0.406 l -0.234,0.063 -108.281,31.094 -48.531,13.938 c 0,0 -19.813,26.703 -96.008,29 l 0,-62.188 c 2.188,-0.031 4.383,-0.063 6.586,-0.063 41.5,0 76.359,6.359 103.594,18.891 l 10.266,4.734 4.125,-10.531 c 0.594,-1.5 14.406,-37.25 18.266,-85.211 2.281,-28.352 0.578,-55.109 -5.063,-79.539 -7.141,-30.883 -20.578,-58.063 -39.984,-80.781 l -3.203,-3.742 -94.586,0 0,-42.611 c 0,-5.891 -4.781,-10.664 -10.672,-10.664 -5.891,0 -10.666,4.774 -10.666,10.664 l 0,4.219 c -5.336,2.102 -15.844,4.117 -30.289,-3.141 -31.406,-15.781 -68.219,-0.969 -69.766,-0.336 l 0.023,0.055 c -3.891,1.594 -6.633,5.414 -6.633,9.875 0,5.891 4.773,10.664 10.664,10.664 1.695,0 3.297,-0.406 4.719,-1.109 4.469,-1.625 30.836,-10.422 51.414,-0.086 10.961,5.508 20.719,7.383 28.938,7.383 4.031,0 7.68,-0.453 10.93,-1.156 l 0,16.242 -138.664,0 -15.172,0.008 5.133,14.273 c 0.102,0.273 9.992,28.008 17.891,70.109 7.258,38.656 14.281,97.711 6.531,159.539 l -1.18,9.406 L 10.695,309.195 0,351.852 l 24.281,11.625 4.211,18.031 13.195,9.719 c 0,0 -12.547,82.625 73.68,88.625 l 188.555,0 c 0,0 1.828,0.156 5.031,0.156 22.781,0 115.234,-7.438 118.141,-127.734 l 77.188,-22.172 c 4.452,-1.282 7.718,-5.375 7.718,-10.25 0,-5.875 -4.781,-10.656 -10.656,-10.656 z M 99.969,106.602 l 230.031,0 c 29,36.094 41.438,83.313 36.953,140.438 -2.375,30.313 -9.172,55.813 -13.391,69.344 -28.141,-10.797 -62.25,-16.25 -101.641,-16.25 -54.438,0 -104.969,10.297 -129.375,16.172 5.273,-58.961 -1.5,-114.023 -8.477,-151.055 -4.85,-25.728 -10.335,-46.056 -14.1,-58.649 z M 224,322.367 l 0,61.266 C 146.352,380.414 110.484,342.602 110.484,342.602 l -1.633,-0.563 4.43,-1.281 C 113.859,340.586 163.992,326.164 224,322.367 Z M 379,430.82 c -10.188,10.828 -23.344,18.656 -39.125,23.313 -13.406,3.953 -25.125,4.531 -30.922,4.531 -1.906,0 -3.094,-0.063 -3.359,-0.063 l -0.703,-0.078 -0.969,0 -187.781,0 C 96.875,457.07 82.719,450.898 74.032,440.195 59.516,422.289 62.602,395.851 62.798,394.382 l 2.063,-12.578 -10.516,-7.75 -6.867,-5.047 -2.422,-10.375 -2.328,-9.984 -9.242,-4.422 -8.555,-4.094 0.852,-3.391 73.547,24.609 c 5.445,4.781 15.93,12.938 31.734,20.922 29.68,15 65.508,22.922 103.602,22.922 38.336,0 69.992,-5.547 94.055,-16.5 11.609,-5.266 19.203,-10.813 23.875,-15.031 l 52.906,-15.188 C 403.734,389.727 394.859,414.008 379,430.82 Z"
         id="path7"
         inkscape:connector-curvature="0" /></g></g><g
     id="g9"
     transform="matrix(0.86151481,0,0,0.86151481,35.452208,35.452208)"><g
       id="g11"><path
         d="m 288,415.852 c -5.891,0 -10.656,4.781 -10.656,10.672 0,5.891 4.766,10.672 10.656,10.672 5.89,0 10.656,-4.781 10.656,-10.672 0,-5.891 -4.765,-10.672 -10.656,-10.672 z"
         id="path13"
         inkscape:connector-curvature="0" /></g></g><g
     id="g15"
     transform="matrix(0.86151481,0,0,0.86151481,35.452208,35.452208)"><g
       id="g17"><path
         d="m 245.336,415.852 c -5.891,0 -10.672,4.781 -10.672,10.672 0,5.891 4.781,10.672 10.672,10.672 5.891,0 10.664,-4.782 10.664,-10.673 0,-5.891 -4.773,-10.671 -10.664,-10.671 z"
         id="path19"
         inkscape:connector-curvature="0" /></g></g><g
     id="g21"
     transform="matrix(0.86151481,0,0,0.86151481,35.452208,35.452208)"><g
       id="g23"><path
         d="m 202.664,415.852 c -5.891,0 -10.664,4.781 -10.664,10.672 0,5.891 4.773,10.672 10.664,10.672 5.891,0 10.672,-4.781 10.672,-10.672 0,-5.891 -4.781,-10.672 -10.672,-10.672 z"
         id="path25"
         inkscape:connector-curvature="0" /></g></g><g
     id="g27"
     transform="matrix(0.86151481,0,0,0.86151481,35.452208,35.452208)"><g
       id="g29"><path
         d="m 160,415.852 c -5.891,0 -10.664,4.781 -10.664,10.672 0,5.891 4.773,10.672 10.664,10.672 5.891,0 10.664,-4.781 10.664,-10.672 0,-5.891 -4.773,-10.672 -10.664,-10.672 z"
         id="path31"
         inkscape:connector-curvature="0" /></g></g><g
     id="g51" /><g
     id="g53" /><g
     id="g55" /><g
     id="g57" /><g
     id="g59" /><g
     id="g61" /><g
     id="g63" /><g
     id="g65" /><g
     id="g67" /><g
     id="g69" /><g
     id="g71" /><g
     id="g73" /><g
     id="g75" /><g
     id="g77" /><g
     id="g79" /><g
     id="g4266"
     transform="matrix(0.25802841,0,0.05568475,0.25802841,143.15167,133.14954)"
     style="stroke:#000000"><g
       id="g4216"
       style="stroke:#000000"><g
         id="g4218"
         style="stroke:#000000"><path
           id="path4220"
           d="m 122.855,335.491 c 3.514,11.463 7.147,23.318 8.96,35.258 0.741,4.866 3.647,40.261 5.218,59.707 0.602,7.451 6.252,13.508 13.643,14.626 l 25.821,3.904 c 3.723,0.563 6.692,3.402 7.417,7.097 l 3.402,17.401 c 1.479,7.563 8.108,13.018 15.814,13.014 l 200.241,-0.119 c 7.572,-0.005 14.118,-5.283 15.726,-12.682 l 3.896,-17.915 c 0.86,-3.536 3.782,-6.193 7.383,-6.717 l 31.437,-4.566 c 7.554,-1.097 13.3,-7.344 13.759,-14.964 1.206,-20.008 3.457,-56.434 4.155,-61.425 1.653,-11.784 5.131,-23.432 8.49,-34.764 4.709,-15.857 9.578,-32.225 9.578,-49.248 0.006,-108.709 -86.402,-197.132 -192.608,-197.132 -106.206,0 -192.613,88.471 -192.613,197.204 0.001,17.782 5.227,34.834 10.281,51.321 z m 207.43,-10.032 c 1.221,-30.877 28.91,-38.641 59.787,-37.421 30.877,1.221 53.249,10.965 52.028,41.842 -1.221,30.877 -27.241,54.918 -58.118,53.697 -30.877,-1.221 -54.918,-27.241 -53.697,-58.118 z m -18.166,60.589 20.042,29.679 c 1.778,2.632 2.021,6.011 0.639,8.871 l -2.875,5.951 c -1.489,3.081 -4.609,5.038 -8.03,5.038 l -17.167,0 -17.167,0 c -3.422,0 -6.542,-1.958 -8.03,-5.038 l -2.875,-5.951 c -1.382,-2.86 -1.138,-6.238 0.639,-8.871 l 20.042,-29.679 c 3.536,-5.237 11.246,-5.237 14.782,0 z m -91.82,-98.009 c 30.877,-1.221 58.566,6.543 59.787,37.421 1.221,30.877 -22.82,56.897 -53.697,58.118 -30.877,1.221 -56.897,-22.82 -58.118,-53.697 -1.221,-30.878 21.151,-40.622 52.028,-41.842 z"
           inkscape:connector-curvature="0"
           style="stroke:#000000" /><path
           id="path4222"
           d="M 556.35,58.611 C 558.752,43.861 554.261,28.206 542.851,16.854 524.525,-1.38 494.627,-1.712 475.922,16.133 456.364,34.792 456.088,65.779 475.094,84.785 l -17.47,17.47 c -6.98,6.981 -6.98,18.299 0,25.28 l 29.802,29.802 c 6.98,6.981 18.299,6.981 25.279,0 l 17.47,-17.47 c 19.007,19.007 49.994,18.73 68.652,-0.828 C 616.672,120.334 616.339,90.435 598.105,72.11 586.754,60.7 571.1,56.209 556.35,58.611 Z"
           inkscape:connector-curvature="0"
           style="stroke:#000000" /><path
           id="path4224"
           d="m 81.824,139.866 17.47,17.47 c 6.981,6.981 18.299,6.981 25.279,0 l 29.802,-29.802 c 6.981,-6.981 6.981,-18.299 0,-25.28 l -17.47,-17.47 C 155.912,65.778 155.635,34.791 136.077,16.132 117.372,-1.712 87.474,-1.38 69.148,16.854 57.739,28.206 53.248,43.861 55.65,58.611 40.9,56.209 25.246,60.7 13.893,72.109 c -18.234,18.325 -18.567,48.224 -0.722,66.929 18.659,19.558 49.646,19.834 68.653,0.828 z"
           inkscape:connector-curvature="0"
           style="stroke:#000000" /><path
           id="path4226"
           d="m 598.829,472.962 c -18.659,-19.559 -49.646,-19.834 -68.652,-0.828 l -17.47,-17.47 c -6.981,-6.981 -18.299,-6.981 -25.279,0 l -29.802,29.802 c -6.98,6.981 -6.98,18.299 0,25.28 l 17.47,17.47 c -19.007,19.007 -18.73,49.994 0.828,68.652 18.705,17.845 48.604,17.513 66.929,-0.721 11.41,-11.352 15.901,-27.007 13.499,-41.757 14.75,2.402 30.404,-2.089 41.756,-13.499 18.233,-18.326 18.565,-48.224 0.721,-66.929 z"
           inkscape:connector-curvature="0"
           style="stroke:#000000" /><path
           id="path4228"
           d="m 55.65,553.389 c -2.402,14.75 2.089,30.405 13.499,41.757 18.326,18.234 48.224,18.566 66.929,0.721 19.558,-18.659 19.834,-49.646 0.828,-68.652 l 17.47,-17.47 c 6.981,-6.98 6.981,-18.299 0,-25.28 l -29.802,-29.802 c -6.981,-6.981 -18.299,-6.981 -25.279,0 l -17.47,17.47 C 62.818,453.126 31.831,453.402 13.173,472.961 -4.672,491.666 -4.34,521.564 13.894,539.89 25.246,551.3 40.9,555.791 55.65,553.389 Z"
           inkscape:connector-curvature="0"
           style="stroke:#000000" /></g></g><g
       id="g4230"
       style="stroke:#000000" /><g
       id="g4232"
       style="stroke:#000000" /><g
       id="g4234"
       style="stroke:#000000" /><g
       id="g4236"
       style="stroke:#000000" /><g
       id="g4238"
       style="stroke:#000000" /><g
       id="g4240"
       style="stroke:#000000" /><g
       id="g4242"
       style="stroke:#000000" /><g
       id="g4244"
       style="stroke:#000000" /><g
       id="g4246"
       style="stroke:#000000" /><g
       id="g4248"
       style="stroke:#000000" /><g
       id="g4250"
       style="stroke:#000000" /><g
       id="g4252"
       style="stroke:#000000" /><g
       id="g4254"
       style="stroke:#000000" /><g
       id="g4256"
       style="stroke:#000000" /><g
       id="g4258"
       style="stroke:#000000" /></g></svg>