<?xml version="1.0" encoding="UTF-8" standalone="no"?>
<!-- Generator: Adobe Illustrator 18.0.0, SVG Export Plug-In . SVG Version: 6.00 Build 0)  -->

<svg
   xmlns:dc="http://purl.org/dc/elements/1.1/"
   xmlns:cc="http://creativecommons.org/ns#"
   xmlns:rdf="http://www.w3.org/1999/02/22-rdf-syntax-ns#"
   xmlns:svg="http://www.w3.org/2000/svg"
   xmlns="http://www.w3.org/2000/svg"
   xmlns:sodipodi="http://sodipodi.sourceforge.net/DTD/sodipodi-0.dtd"
   xmlns:inkscape="http://www.inkscape.org/namespaces/inkscape"
   version="1.1"
   id="Capa_1"
   x="0px"
   y="0px"
   viewBox="0 0 63.999999 63.999999"
   xml:space="preserve"
   inkscape:version="0.91 r13725"
   sodipodi:docname="saber.svg"
   width="64"
   height="64"><metadata
     id="metadata39"><rdf:RDF><cc:Work
         rdf:about=""><dc:format>image/svg+xml</dc:format><dc:type
           rdf:resource="http://purl.org/dc/dcmitype/StillImage" /><dc:title></dc:title></cc:Work></rdf:RDF></metadata><defs
     id="defs37" /><sodipodi:namedview
     pagecolor="#ffffff"
     bordercolor="#666666"
     borderopacity="1"
     objecttolerance="10"
     gridtolerance="10"
     guidetolerance="10"
     inkscape:pageopacity="0"
     inkscape:pageshadow="2"
     inkscape:window-width="1680"
     inkscape:window-height="999"
     id="namedview35"
     showgrid="false"
     inkscape:zoom="8.9529588"
     inkscape:cx="55.385681"
     inkscape:cy="18.213355"
     inkscape:window-x="0"
     inkscape:window-y="0"
     inkscape:window-maximized="1"
     inkscape:current-layer="Capa_1" /><g
     id="g5"
     transform="translate(0,-357.76001)" /><g
     id="g7"
     transform="translate(0,-357.76001)" /><g
     id="g9"
     transform="translate(0,-357.76001)" /><g
     id="g11"
     transform="translate(0,-357.76001)" /><g
     id="g13"
     transform="translate(0,-357.76001)" /><g
     id="g15"
     transform="translate(0,-357.76001)" /><g
     id="g17"
     transform="translate(0,-357.76001)" /><g
     id="g19"
     transform="translate(0,-357.76001)" /><g
     id="g21"
     transform="translate(0,-357.76001)" /><g
     id="g23"
     transform="translate(0,-357.76001)" /><g
     id="g25"
     transform="translate(0,-357.76001)" /><g
     id="g27"
     transform="translate(0,-357.76001)" /><g
     id="g29"
     transform="translate(0,-357.76001)" /><g
     id="g31"
     transform="translate(0,-357.76001)" /><g
     id="g33"
     transform="translate(0,-357.76001)" /><path
     style="fill:#c8beb7;fill-opacity:1;stroke:none;stroke-width:1.78711867"
     d="M 25.422184,41.560385 C 24.601101,40.71541 23.547532,39.572651 23.08092,39.020919 16.963388,31.787441 13.311776,23.136585 12.321606,13.531556 12.096799,11.350839 11.97816,7.9160188 12.084044,6.6536754 l 0.08246,-0.9830785 0.495895,0.8043175 c 1.664083,2.6990632 4.712411,5.6712936 7.437607,7.2519366 0.717452,0.41613 0.871331,0.556056 0.91825,0.834988 0.031,0.184296 0.161038,1.089025 0.288974,2.010508 1.07915,7.772796 3.70161,14.98849 7.50993,20.66356 0.494697,0.737187 1.068748,1.562831 1.27567,1.834765 l 0.37622,0.494426 -0.36364,0.399133 c -0.848554,0.931378 -2.624474,2.721058 -2.896107,2.918547 l -0.294242,0.213925 -1.492877,-1.536318 z"
     id="path4167"
     inkscape:connector-curvature="0" /><path
     style="fill:#c8beb7;fill-opacity:1;stroke:none;stroke-width:1.78711867"
     d="m 22.772345,50.973339 c -0.31587,-0.829909 -0.57431,-1.524435 -0.57431,-1.543392 0,-0.01895 0.576126,-0.377266 1.28028,-0.796245 2.424423,-1.442555 4.773048,-3.334278 7.098764,-5.71777 2.519088,-2.581668 4.561707,-5.332122 6.367105,-8.573517 2.907093,-5.219373 4.866631,-11.352437 5.83459,-18.261421 l 0.256624,-1.831692 0.946276,-0.571094 c 2.739443,-1.653301 5.377446,-4.203384 7.174114,-6.9350135 0.363651,-0.5528898 0.68742,-1.0303856 0.719486,-1.0611017 0.136152,-0.1304161 -0.06444,7.0517392 -0.235529,8.4329662 -0.702207,5.669125 -2.142109,10.589109 -4.508776,15.405991 -1.115026,2.269413 -1.850036,3.541618 -3.178951,5.502342 -4.013658,5.921875 -9.698309,11.155628 -16.560169,15.246633 -1.181793,0.704579 -3.908154,2.212238 -4.000479,2.212238 -0.02459,0 -0.303155,-0.679015 -0.619025,-1.508924 z"
     id="path4169"
     inkscape:connector-curvature="0" /><path
     style="fill:#c8beb7;fill-opacity:1;stroke:none;stroke-width:1.78711867"
     d="m 40.236765,52.294307 c -0.885745,-0.444838 -3.148146,-1.72832 -4.300255,-2.439577 -1.805807,-1.114818 -1.790772,-1.104699 -1.759486,-1.184168 0.01552,-0.03942 0.679276,-0.59759 1.475017,-1.240383 l 1.446802,-1.168713 1.010486,0.746102 c 0.954885,0.705048 2.226571,1.539047 3.260157,2.138079 l 0.462552,0.26808 -0.574247,1.470296 c -0.315836,0.808663 -0.599378,1.494657 -0.630094,1.524433 -0.03072,0.02978 -0.206636,-0.02159 -0.390932,-0.114149 z"
     id="path4171"
     inkscape:connector-curvature="0" /><path
     style="fill:#008000;fill-opacity:1;stroke:none;stroke-width:1.78711867"
     d="m 41.830078,50.460938 c -2.104749,2.830291 0.03916,6.199046 3.445313,5.585937 2.948938,-1.553473 3.014901,-6.4413 -0.865235,-6.744141 -2.294102,-0.971329 -1.778829,-1.199385 -2.580078,1.158204 z"
     id="path4173"
     inkscape:connector-curvature="0" /><path
     style="fill:#008000;fill-opacity:1;stroke:none;stroke-width:1.78711867"
     d="m 46.126953,51.947266 c -1.831359,2.800593 -1.350656,5.443611 2.321952,5.859891 2.765814,2.043062 5.850882,-5.626193 2.158517,-6.113798 -1.318034,-0.321599 -4.109066,-2.073903 -4.480469,0.253907 z"
     id="path4175"
     inkscape:connector-curvature="0" /><path
     style="fill:#008000;fill-opacity:1;stroke:none;stroke-width:1.78711867"
     d="m 50.773438,53.904297 c -2.150874,2.855659 -0.144271,5.847235 3.257812,5.751953 3.04186,-1.489233 3.316902,-6.594057 -0.681641,-6.890625 -1.806677,-0.982916 -2.085797,-0.854939 -2.576171,1.138672 z"
     id="path4177"
     inkscape:connector-curvature="0" /><path
     style="fill:#008000;fill-opacity:1;stroke:none;stroke-width:1.78711867"
     d="m 57.1875,54.820312 c -4.719578,-0.0217 -2.75629,7.739326 1.361328,5.533204 2.765516,-1.303846 1.706252,-5.650182 -1.361328,-5.533204 z"
     id="path4179"
     inkscape:connector-curvature="0" /><path
     style="fill:#ff0000;fill-opacity:1;stroke:none;stroke-width:1.78711867"
     d="m 6.7773438,54.826172 c -5.3046577,-0.0058 -2.280947,8.412076 1.7910156,5.210937 2.1683696,-1.625253 0.9170612,-5.228108 -1.7910156,-5.210937 z"
     id="path4181"
     inkscape:connector-curvature="0" /><path
     style="fill:#ff0000;fill-opacity:1;stroke:none;stroke-width:1.78711867"
     d="M 10.658203,52.755859 C 6.552907,53.077382 7.0673188,58.141622 9.9550781,59.845703 13.098902,59.63735 15.656041,56.825336 13.242188,53.904297 12.755702,51.890555 12.478803,51.766278 10.658203,52.755859 Z"
     id="path4183"
     inkscape:connector-curvature="0" /><path
     style="fill:#ff0000;fill-opacity:1;stroke:none;stroke-width:1.78711867"
     d="m 15.388672,50.943359 c -3.569612,0.542231 -4.779713,2.789955 -2.736328,5.865235 2.026047,2.828328 8.347483,-0.332405 5.769531,-3.59375 -0.651039,-1.313641 -1.040862,-3.933004 -3.033203,-2.271485 z"
     id="path4185"
     inkscape:connector-curvature="0" /><path
     style="fill:#ff0000;fill-opacity:1;stroke:none;stroke-width:1.78711867"
     d="m 19.566406,49.304688 c -4.184101,0.504612 -3.153503,4.871054 -1.492187,7.533203 2.706235,-0.986721 6.688503,-1.902174 4.515625,-5.261719 -0.89674,-1.576978 -0.479144,-4.184874 -3.023438,-2.271484 z"
     id="path4187"
     inkscape:connector-curvature="0" /><path
     d="M 60.252556,56.418203 C 59.898534,55.615775 59.253314,54.999234 58.435559,54.682086 58.108093,54.555076 57.772281,54.484969 57.4392,54.46585 l 0.365403,-0.942338 c 0.227314,-0.58604 -0.06358,-1.245373 -0.64947,-1.472687 -0.586343,-0.227466 -1.245524,0.06373 -1.472535,0.649621 l -0.206374,0.53217 -10.97922,-4.257818 0.932626,-2.41806 c 0.226101,-0.586495 -0.06601,-1.245221 -0.652504,-1.471321 -0.58604,-0.2261 -1.245069,0.06586 -1.471321,0.652352 l -0.576784,1.495601 c -1.341883,-0.749166 -2.656603,-1.618514 -3.929594,-2.59894 1.901975,-1.791048 3.637788,-3.688622 5.200157,-5.689989 4.115177,-5.271477 7.044467,-11.258887 8.706532,-17.795918 C 55.534646,10.024386 53.728271,1.2682335 53.649971,0.9008584 53.542384,0.39615388 53.108696,0.02695783 52.593217,0.00146464 52.077739,-0.02463554 51.609757,0.30040267 51.4527,0.79205709 48.821591,9.034856 41.508079,12.395405 41.436455,12.427423 41.062404,12.593433 40.806409,12.947454 40.76559,13.354435 39.794269,23.073259 36.844798,31.268562 31.999725,37.723651 27.154198,31.272811 24.206699,23.083578 23.234923,13.354738 23.194407,12.949123 22.937958,12.595253 22.56603,12.428486 22.492434,12.395557 15.178164,9.0350078 12.547813,0.79266408 12.390908,0.30100965 11.922774,-0.02387681 11.407296,0.00191987 10.891817,0.02741306 10.458129,0.39660912 10.350542,0.90146538 10.294548,1.1641363 8.9946993,7.4339442 10.281802,16.098595 c 0.755539,5.086347 2.253264,9.942497 4.451445,14.433396 2.559334,5.228987 6.079064,9.9689 10.470722,14.107902 -1.409106,1.083461 -2.746285,1.934296 -3.931567,2.596208 l -0.577845,-1.49818 c -0.226101,-0.586495 -0.88513,-0.878453 -1.471322,-0.652352 -0.586495,0.2261 -0.878604,0.884978 -0.652352,1.471321 l 0.932474,2.41806 -10.9792197,4.257818 -0.206374,-0.53217 c -0.227314,-0.585889 -0.886191,-0.876936 -1.472687,-0.649622 -0.58604,0.227315 -0.876783,0.886648 -0.649621,1.472536 l 0.365554,0.942641 c -0.337026,0.02003 -0.672686,0.09044 -0.99651,0.215933 l 0,0 c -0.817755,0.317148 -1.462976,0.933689 -1.816997,1.736117 -0.354022,0.802429 -0.374204,1.69469 -0.05706,2.512294 0.316995,0.817603 0.933536,1.462975 1.735965,1.816845 0.424431,0.187253 0.8739,0.281032 1.324128,0.281032 0.401214,0 0.803036,-0.07451 1.188317,-0.223824 0.37481,-0.145372 0.711229,-0.356298 1.002125,-0.616693 1.5057677,2.390594 4.1450717,3.808198 6.9121447,3.807894 0.97906,0 1.974509,-0.177542 2.940822,-0.552352 3.555238,-1.378757 5.598032,-4.996211 5.145224,-8.621252 2.878455,-1.434599 5.56738,-3.011838 8.060705,-4.725042 2.485131,1.706375 5.190141,3.290898 8.061464,4.722614 -0.454022,3.626103 1.588772,7.244771 5.14492,8.623831 C 46.163769,63.814871 47.162101,64 48.159067,64 c 1.118817,0 2.235965,-0.233384 3.290595,-0.698483 1.508954,-0.665706 2.752657,-1.746436 3.610169,-3.113053 0.290896,0.260091 0.62686,0.470866 1.001519,0.616086 0.388923,0.150834 0.789226,0.222306 1.183309,0.222306 1.316389,0 2.561307,-0.797269 3.064949,-2.096208 0.317148,-0.817755 0.296814,-1.710016 -0.05706,-2.512445 z m -6.531265,1.339151 -2.056147,-0.797421 0.931867,-2.402581 2.056147,0.797421 -0.931867,2.402581 z m -3.246437,-4.022916 -0.931867,2.402581 -2.619425,-1.015782 0.931867,-2.402582 2.619425,1.015783 z m -4.74143,-1.838697 -0.931867,2.402582 -2.050988,-0.795297 0.927315,-2.404402 2.05554,0.797117 z M 16.802748,29.582824 C 14.706691,25.314384 13.274672,20.69526 12.546447,15.853526 11.916401,11.664448 11.928389,8.0228673 12.095764,5.4397089 c 2.933082,5.2367271 7.332024,7.9201891 8.939764,8.7692031 1.102581,10.107899 4.296058,18.627329 9.498946,25.347669 -1.182551,1.38604 -2.38331,2.586041 -3.559639,3.623068 -4.274966,-3.983767 -7.695302,-8.552966 -10.172087,-13.596825 z m 16.758891,9.850995 c 5.145679,-6.70562 8.307897,-15.190149 9.403194,-25.225211 1.60774,-0.849014 6.007441,-3.53369 8.940523,-8.771327 0.226708,3.5068314 0.165403,8.972542 -1.405312,15.15024 -1.583916,6.229747 -4.374662,11.934608 -8.294696,16.95616 -4.694541,6.013662 -11.038855,11.066321 -18.867845,15.032637 L 22.306546,49.917743 22.09911,49.379654 c 3.200155,-1.74598 7.519885,-4.808198 11.462529,-9.945835 z m -12.312302,14.069056 -2.050988,0.795296 -0.931715,-2.402582 2.055388,-0.797117 0.927315,2.404403 z m -6.792266,2.634144 -0.931716,-2.402581 2.619274,-1.015783 0.931715,2.402582 -2.619273,1.015782 z m -3.054024,-1.579515 0.931715,2.402581 -2.056147,0.797421 -0.9317157,-2.402581 2.0561477,-0.797421 z m -3.7298967,3.592264 c -0.10865,0.24613 -0.306525,0.435205 -0.557208,0.532473 -0.250987,0.09727 -0.524432,0.09105 -0.770714,-0.01745 -0.246131,-0.10865 -0.435205,-0.306526 -0.532474,-0.55736 -0.09727,-0.250835 -0.09105,-0.524583 0.01745,-0.770714 0.108649,-0.246131 0.306525,-0.435205 0.55736,-0.532474 l 0,0 c 0.118209,-0.04583 0.241426,-0.06874 0.36434,-0.06874 0.13824,0 0.276024,0.02883 0.406222,0.08619 0.24613,0.108649 0.435205,0.306525 0.532474,0.557208 l 0,1.52e-4 c 0.09727,0.250986 0.09105,0.524583 -0.01745,0.770714 z m 10.2977317,3.171474 c -2.350685,0.911685 -4.936574,0.204249 -6.52307,-1.575874 l 10.277853,-3.985739 c 0.02792,2.384069 -1.405615,4.650687 -3.754783,5.561613 z M 37.08061,46.184052 c 1.551594,1.223218 3.16677,2.293022 4.820944,3.194692 l -0.242792,0.62959 -0.996055,2.568591 c -2.363432,-1.197724 -4.604101,-2.50243 -6.69166,-3.893326 1.077088,-0.805919 2.113811,-1.639303 3.109563,-2.499547 z m 13.450238,15.034762 c -1.437634,0.634143 -3.036269,0.670714 -4.501521,0.102428 -2.349015,-0.910926 -3.782552,-3.177393 -3.754631,-5.561613 l 10.279978,3.98665 c -0.553566,0.623066 -1.238544,1.126101 -2.023826,1.472535 z m 7.656759,-3.111383 c -0.200759,0.517603 -0.785736,0.775721 -1.303187,0.57481 -0.250835,-0.09727 -0.448863,-0.286343 -0.55736,-0.532473 -0.10865,-0.246131 -0.114872,-0.519879 -0.0176,-0.770714 0.154628,-0.398483 0.536419,-0.643096 0.940213,-0.643096 0.12079,0 0.243551,0.02185 0.362975,0.06813 0.250835,0.09727 0.44871,0.286343 0.55736,0.532626 0.108649,0.246282 0.114719,0.519879 0.0176,0.770714 z"
     id="path3"
     inkscape:connector-curvature="0" /></svg>