<?xml version="1.0" encoding="UTF-8" standalone="no"?>
<!-- Generator: Adobe Illustrator 18.0.0, SVG Export Plug-In . SVG Version: 6.00 Build 0)  -->

<svg
   xmlns:dc="http://purl.org/dc/elements/1.1/"
   xmlns:cc="http://creativecommons.org/ns#"
   xmlns:rdf="http://www.w3.org/1999/02/22-rdf-syntax-ns#"
   xmlns:svg="http://www.w3.org/2000/svg"
   xmlns="http://www.w3.org/2000/svg"
   xmlns:sodipodi="http://sodipodi.sourceforge.net/DTD/sodipodi-0.dtd"
   xmlns:inkscape="http://www.inkscape.org/namespaces/inkscape"
   version="1.1"
   id="Capa_1"
   x="0px"
   y="0px"
   viewBox="0 0 64.000002 64.000002"
   xml:space="preserve"
   inkscape:version="0.91 r13725"
   sodipodi:docname="ship.svg"
   width="64"
   height="64"><metadata
     id="metadata47"><rdf:RDF><cc:Work
         rdf:about=""><dc:format>image/svg+xml</dc:format><dc:type
           rdf:resource="http://purl.org/dc/dcmitype/StillImage" /><dc:title></dc:title></cc:Work></rdf:RDF></metadata><defs
     id="defs45" /><sodipodi:namedview
     pagecolor="#ffffff"
     bordercolor="#666666"
     borderopacity="1"
     objecttolerance="10"
     gridtolerance="10"
     guidetolerance="10"
     inkscape:pageopacity="0"
     inkscape:pageshadow="2"
     inkscape:window-width="1680"
     inkscape:window-height="999"
     id="namedview43"
     showgrid="false"
     inkscape:zoom="5.7786217"
     inkscape:cx="-0.66622375"
     inkscape:cy="19.176932"
     inkscape:window-x="0"
     inkscape:window-y="0"
     inkscape:window-maximized="1"
     inkscape:current-layer="Capa_1" /><g
     id="g3"
     transform="matrix(0.13737826,0,0,0.13737826,0.26194628,0.26191283)"><path
       d="m 178.828,345.125 c -12.279,0 -22.269,9.99 -22.269,22.269 0,12.279 9.99,22.269 22.269,22.269 12.279,0 22.269,-9.99 22.269,-22.269 0,-12.279 -9.99,-22.269 -22.269,-22.269 z m 0,29.537 c -4.008,0 -7.269,-3.261 -7.269,-7.269 0,-4.008 3.261,-7.269 7.269,-7.269 4.008,0 7.269,3.261 7.269,7.269 0,4.008 -3.261,7.269 -7.269,7.269 z"
       id="path5"
       inkscape:connector-curvature="0" /><path
       d="m 230.518,345.125 c -12.279,0 -22.269,9.99 -22.269,22.269 0,12.279 9.99,22.269 22.269,22.269 12.279,0 22.269,-9.99 22.269,-22.269 0,-12.279 -9.99,-22.269 -22.269,-22.269 z m 0,29.537 c -4.008,0 -7.269,-3.261 -7.269,-7.269 0,-4.008 3.261,-7.269 7.269,-7.269 4.008,0 7.269,3.261 7.269,7.269 0,4.008 -3.261,7.269 -7.269,7.269 z"
       id="path7"
       inkscape:connector-curvature="0" /><path
       d="m 282.209,345.125 c -12.279,0 -22.269,9.99 -22.269,22.269 0,12.279 9.99,22.269 22.269,22.269 12.279,0 22.269,-9.99 22.269,-22.269 0,-12.279 -9.991,-22.269 -22.269,-22.269 z m 0,29.537 c -4.008,0 -7.269,-3.261 -7.269,-7.269 0,-4.008 3.261,-7.269 7.269,-7.269 4.008,0 7.269,3.261 7.269,7.269 0,4.008 -3.262,7.269 -7.269,7.269 z"
       id="path9"
       inkscape:connector-curvature="0" /><path
       d="m 447.388,280.945 c -0.938,-4.035 -4.969,-6.547 -9.003,-5.607 l -126.25,29.342 c -3.397,0.79 -5.802,3.817 -5.802,7.305 0,6.084 -4.95,11.035 -11.035,11.035 l -57.28,0 0,-115.098 c 6.545,7.088 15.653,11.112 25.414,11.111 10.713,0 20.65,-4.834 27.263,-13.263 l 5.661,-7.216 5.666,7.221 c 6.613,8.428 16.549,13.262 27.262,13.262 10.712,0 20.649,-4.834 27.261,-13.262 l 9.315,-11.872 10.432,0 c 4.142,0 7.5,-3.358 7.5,-7.5 0,-4.142 -3.358,-7.5 -7.5,-7.5 l -138.274,0 0,-36.984 c 6.545,7.088 15.653,11.111 25.414,11.111 10.713,0 20.65,-4.834 27.263,-13.263 l 9.309,-11.866 11.683,0 c 4.142,0 7.5,-3.358 7.5,-7.5 0,-4.142 -3.358,-7.5 -7.5,-7.5 l -73.669,0 0,-29.984 15.971,0 c 3.671,0 6.802,-2.657 7.4,-6.279 l 5.192,-31.474 c 0.358,-2.173 -0.256,-4.394 -1.681,-6.073 -1.425,-1.679 -3.516,-2.647 -5.719,-2.647 l -21.164,0 0,-28.944 c 0,-4.142 -3.358,-7.5 -7.5,-7.5 -4.142,0 -7.5,3.358 -7.5,7.5 l 0,28.943 -21.164,0 c -2.203,0 -4.293,0.968 -5.719,2.647 -1.425,1.679 -2.04,3.9 -1.681,6.073 l 5.192,31.474 c 0.598,3.622 3.729,6.279 7.4,6.279 l 15.971,0 0,29.984 -73.669,0 c -4.142,0 -7.5,3.358 -7.5,7.5 0,4.142 3.358,7.5 7.5,7.5 l 11.664,0 9.307,11.865 c 6.613,8.429 16.55,13.264 27.264,13.264 9.771,0 18.888,-4.032 25.434,-11.134 l 0,37.008 -138.271,0 c -4.142,0 -7.5,3.358 -7.5,7.5 0,4.142 3.358,7.5 7.5,7.5 l 10.431,0 9.302,11.859 c 6.613,8.431 16.551,13.266 27.265,13.266 10.715,0 20.653,-4.835 27.266,-13.266 l 5.653,-7.208 5.658,7.213 c 6.613,8.429 16.55,13.264 27.264,13.264 9.771,0 18.888,-4.032 25.434,-11.134 l 0,115.123 -25.712,0 c -7.502,0 -13.606,-6.104 -13.606,-13.606 l 0,-48.379 c 0,-4.142 -3.358,-7.5 -7.5,-7.5 l -154.231,0 c -4.142,0 -7.5,3.358 -7.5,7.5 0,4.142 3.358,7.5 7.5,7.5 l 10.434,0 0,15.734 -10.434,0 c -4.142,0 -7.5,3.358 -7.5,7.5 0,4.142 3.358,7.5 7.5,7.5 l 10.434,0 0,31.251 c 0,4.142 3.358,7.5 7.5,7.5 l 26.752,0 c 0.971,13.161 3.403,26.705 8.029,39.79 l -8.054,0 c -4.142,0 -7.5,3.358 -7.5,7.5 l 0,53.443 c 0,4.142 3.358,7.5 7.5,7.5 l 37.408,0 c 2.934,0 5.599,-1.711 6.819,-4.378 l 4.323,-9.445 c 24.844,17.914 61.427,29.624 114.616,29.624 90.31,0 164.135,-72.01 167.293,-161.72 l 44.69,-10.386 c 4.037,-0.938 6.547,-4.969 5.609,-9.003 z M 210.694,51.443 l 39.649,0 -2.718,16.474 -34.214,0 -2.717,-16.474 z m 52.738,152.59 c -6.076,0 -11.711,-2.742 -15.462,-7.522 l -2.046,-2.608 35.015,0 -2.046,2.608 c -3.75,4.78 -9.386,7.522 -15.461,7.522 z m 81.311,-7.518 c -3.75,4.78 -9.385,7.521 -15.46,7.521 -6.076,0 -11.711,-2.741 -15.461,-7.521 l -2.05,-2.612 35.021,0 -2.05,2.612 z m -65.85,-66.008 c -3.75,4.78 -9.385,7.522 -15.461,7.522 -6.076,0 -11.712,-2.741 -15.462,-7.521 l -2.046,-2.608 35.014,0 -2.045,2.607 z m -81.309,7.521 c -6.076,0 -11.711,-2.742 -15.462,-7.522 l -2.044,-2.606 35.013,0 -2.044,2.606 c -3.751,4.781 -9.387,7.522 -15.463,7.522 z m -65.841,66 c -6.076,0 -11.712,-2.742 -15.462,-7.523 l -2.041,-2.602 35.007,0 -2.041,2.602 c -3.75,4.781 -9.386,7.523 -15.463,7.523 z m 65.841,0.004 c -6.076,0 -11.711,-2.742 -15.462,-7.522 l -2.045,-2.607 35.014,0 -2.045,2.606 c -3.75,4.781 -9.386,7.523 -15.462,7.523 z m -150.181,64.503 121.297,0 0,15.734 -121.297,0 0,-15.734 z m 51.821,162.718 -25.092,0 0,-38.443 6.985,0 c 5.444,10.632 12.669,20.698 22.111,29.697 l -4.004,8.746 z m 130.574,15.801 c -92.566,0 -142.345,-36.676 -148.096,-109.035 l 71.783,0 c 4.142,0 7.5,-3.358 7.5,-7.5 0,-4.142 -3.358,-7.5 -7.5,-7.5 l -106.082,0 0,-23.751 121.297,0 0,10.145 c 0,15.773 12.833,28.606 28.606,28.606 l 97.992,0 c 12.247,0 22.545,-8.499 25.307,-19.909 l 61.311,-14.25 c -4.913,79.793 -71.264,143.194 -152.118,143.194 z"
       id="path11"
       inkscape:connector-curvature="0" /></g><g
     id="g13"
     transform="translate(0,-398.05399)" /><g
     id="g15"
     transform="translate(0,-398.05399)" /><g
     id="g17"
     transform="translate(0,-398.05399)" /><g
     id="g19"
     transform="translate(0,-398.05399)" /><g
     id="g21"
     transform="translate(0,-398.05399)" /><g
     id="g23"
     transform="translate(0,-398.05399)" /><g
     id="g25"
     transform="translate(0,-398.05399)" /><g
     id="g27"
     transform="translate(0,-398.05399)" /><g
     id="g29"
     transform="translate(0,-398.05399)" /><g
     id="g31"
     transform="translate(0,-398.05399)" /><g
     id="g33"
     transform="translate(0,-398.05399)" /><g
     id="g35"
     transform="translate(0,-398.05399)" /><g
     id="g37"
     transform="translate(0,-398.05399)" /><g
     id="g39"
     transform="translate(0,-398.05399)" /><g
     id="g41"
     transform="translate(0,-398.05399)" /></svg>